<svg width="226" height="136" viewBox="0 0 226 136" fill="none" xmlns="http://www.w3.org/2000/svg">
<g id="Illustration">
<path id="Rectangle" fill-rule="evenodd" clip-rule="evenodd" d="M212.446 136.169C212.446 122.852 201.651 112.057 188.335 112.057L125.296 112.057V166.147C125.296 168.356 127.087 170.147 129.296 170.147H208.446C210.655 170.147 212.446 168.356 212.446 166.147L212.446 136.169Z" fill="#DFDFDF"/>
<path id="Rectangle_2" fill-rule="evenodd" clip-rule="evenodd" d="M163.604 75.9657C163.604 62.8184 153.071 52.0947 139.926 51.8582L126.254 51.6123V117.552H163.604V75.9657Z" fill="#DFDFDF"/>
<path id="Rectangle_3" fill-rule="evenodd" clip-rule="evenodd" d="M155.942 75.7237C155.942 62.4073 145.147 51.6123 131.831 51.6123H77.2245C65.1626 51.6123 55.3844 61.3904 55.3844 73.4523V116.59C55.3844 117.555 56.1667 118.337 57.1316 118.337H155.942L155.942 75.7237Z" fill="#F2F2F2"/>
<path id="Rectangle_4" fill-rule="evenodd" clip-rule="evenodd" d="M84.1152 66.6878C84.1152 58.3618 77.3657 51.6123 69.0398 51.6123C61.4982 51.6123 55.3845 57.726 55.3845 65.2676V110.31C55.3845 111.275 56.1667 112.057 57.1317 112.057H84.1152V66.6878Z" fill="#DFDFDF"/>
<path id="Rectangle_5" fill-rule="evenodd" clip-rule="evenodd" d="M204.785 130.937C204.785 123.979 199.143 118.337 192.185 118.337H130.085V162.297H204.785L204.785 130.937Z" fill="#F2F2F2"/>
<g id="Wom1.4">
<g id="Head">
<path id="Path" fill-rule="evenodd" clip-rule="evenodd" d="M126.834 45.4623C116.825 43.5492 116.165 32.2731 123.775 28.3616C115.927 14.8592 134.075 1.4531 146.506 9.72086C154.655 6.8577 161.428 18.0303 153.844 26.7077C157.024 41.607 150.553 45.4584 138.888 45.622L126.834 45.4623Z" fill="#33373E"/>
<path id="Path_2" fill-rule="evenodd" clip-rule="evenodd" d="M126.958 42.7696C126.958 42.7696 131.827 41.8315 131.996 35.2834C132.165 28.7353 132.046 26.5001 132.046 26.5001L142.771 26.3413C142.771 26.3413 142.888 33.639 142.889 36.2786C142.894 43.3683 148.912 42.7696 148.912 42.7696C148.912 42.7696 147.661 48.5182 137.943 48.9667C130.356 49.3174 126.958 42.7696 126.958 42.7696Z" fill="#EDC2C2"/>
<path id="Path_3" fill-rule="evenodd" clip-rule="evenodd" d="M129.546 23.2299C124.762 23.0779 125.542 28.8265 130.512 28.8187C130.512 28.8187 133.399 36.9849 143.421 36.9849C151.56 36.9849 152.089 27.467 152.163 25.5684C152.242 23.5439 152.253 16.893 152.253 16.893L129.36 16.8843L129.546 23.2299Z" fill="#FFD7D7"/>
<path id="Path_4" d="M141.488 31.499C141.488 31.499 143.875 33.158 146.64 31.6046" stroke="#F77B7B" stroke-width="1.5" stroke-linecap="round"/>
<path id="Path_5" d="M143.064 33.42C143.807 33.7013 144.522 33.7218 145.16 33.4413" stroke="#F49494" stroke-linecap="round"/>
<path id="Path 8" d="M130.034 26.3211C130.083 25.399 129.74 24.6667 128.594 24.5195" stroke="#F77B7B" stroke-linecap="round"/>
<path id="Path_6" fill-rule="evenodd" clip-rule="evenodd" d="M128.789 22.5198C128.789 22.5198 131.411 25.4079 131.943 25.4232C132.474 25.4386 132.66 21.6671 132.66 21.6671C135.877 21.4654 144.017 20.1348 146.013 17.035C147.409 19.7701 150.076 20.985 151.829 20.7517L152.161 26.5624L152.98 14.8804H128.148L128.789 22.5198Z" fill="#33373E"/>
</g>
<g id="LLeg">
<path id="Path_7" fill-rule="evenodd" clip-rule="evenodd" d="M138.812 95.531C146.278 95.8046 187.829 103.348 195.378 104.629C202.927 105.911 209.309 112.845 203.552 120.875C197.087 129.889 180.405 155.488 176.354 161.258C174.35 164.114 164.236 162.513 166.612 157.719C171.04 148.782 173.097 126.332 184.388 118.147C184.388 118.147 146.417 123.571 130.015 117.358C118.094 112.841 120.791 94.8696 138.812 95.531Z" fill="#33373E"/>
</g>
<g id="LArm">
<path id="Path_8" fill-rule="evenodd" clip-rule="evenodd" d="M191.708 59.2968C191.708 59.2968 191.624 54.3109 193.749 51.7053C195.874 49.0997 195.958 46.332 197.566 46.4226C199.174 46.5132 197.582 52.9464 197.582 52.9464C197.582 52.9464 199.623 52.3066 201.088 51.4973C202.554 50.688 206.999 46.6983 208.038 47.4053C209.799 48.6099 206.962 55.405 205.417 56.7635C203.867 58.1225 195.399 62.5912 195.399 62.5912L191.708 59.2968Z" fill="#FFD7D7"/>
<path id="Path_9" fill-rule="evenodd" clip-rule="evenodd" d="M145.83 56.3093C149.303 62.9205 155.662 75.0656 158.283 78.689C161.569 83.2268 166.749 85.226 172.814 81.8592C179.187 78.3214 196.736 64.5232 197.251 61.3976C197.761 58.272 193.465 54.5219 189.579 56.4635C185.693 58.4051 169.544 69.4358 169.544 69.4358C169.544 69.4358 163.026 55.723 157.783 47.7794C153.243 40.9068 140.544 46.2587 145.83 56.3093Z" fill="#3A6DB3"/>
<path id="Path_10" fill-rule="evenodd" clip-rule="evenodd" d="M169.611 69.4426C169.611 69.4426 171.361 74.3158 171.771 74.0336C172.18 73.7514 171.458 68.1689 171.458 68.1689L169.611 69.4426Z" fill="black" fill-opacity="0.302803"/>
</g>
<g id="PhoneMini4">
<g id="Group 3">
<path id="Rectangle_6" d="M213.597 47.4591C214.086 46.2269 213.443 44.9515 212.163 44.6104L203.728 42.3641C202.447 42.023 201.013 42.7453 200.525 43.9775L193.787 60.9748C193.299 62.207 193.941 63.4825 195.222 63.8236L203.656 66.0699C204.937 66.411 206.371 65.6886 206.86 64.4564L213.597 47.4591Z" fill="#7596FF"/>
<rect id="Rectangle_7" width="13.5282" height="23.084" rx="2.4" transform="matrix(-0.966316 -0.257359 -0.368503 0.929627 213.609 44.6836)" fill="#93C2F9"/>
<path id="Rectangle_8" d="M210.968 44.8277L209.977 44.5636C209.775 44.5098 209.56 44.5846 209.462 44.7328L209.432 44.7917C209.358 44.9782 209.114 45.0804 208.886 45.0199L204.106 43.7466C203.904 43.6928 203.783 43.5286 203.811 43.3618L203.828 43.2994C203.902 43.1128 203.778 42.9126 203.55 42.8521L202.564 42.5894C201.831 42.3942 201.047 42.6973 200.755 43.2709L200.713 43.3647L193.814 60.8206C193.514 61.5826 194.022 62.3999 194.949 62.6482L202.793 64.7371C203.68 64.9748 204.631 64.6034 204.977 63.9038L205.02 63.8064C205.02 63.806 205.02 63.8056 205.019 63.8048L211.916 46.3531C212.167 45.7168 211.743 45.0341 210.968 44.8277Z" fill="#E6F3FF"/>
</g>
</g>
<g id="Body">
<path id="Path_11" fill-rule="evenodd" clip-rule="evenodd" d="M111.124 48.3431C111.124 48.3431 119.493 71.3437 119.741 75.6976C119.989 80.0519 112.896 92.8489 114.104 96.0835C116.888 103.558 152.436 106.777 153.794 96.7214C154.427 92.0321 153.109 87.8233 154.628 82.2978C156.141 76.7723 162.225 68.5613 158.774 60.8415C155.324 53.1218 156.248 45.9798 153.781 44.6299C151.313 43.28 145.544 41.8463 145.544 41.8463C142.738 45.235 133.267 45.1856 128.748 41.6074C128.748 41.6074 117.521 43.395 111.124 48.3431Z" fill="#3A6DB3"/>
<path id="Path_12" fill-rule="evenodd" clip-rule="evenodd" d="M118.624 52.0679C124.202 59.3342 124.186 71.9856 127.182 73.6425C130.178 75.2994 141.838 73.6734 141.838 74.9856C141.838 76.2977 125.724 88.3229 128.369 94.0715C129.755 97.0816 129.379 99.7745 127.242 102.15L126.545 102.025C120.195 100.848 115.091 98.7327 114.104 96.083C112.896 92.8485 120.807 80.0514 120.559 75.6971C120.349 72.0013 113.697 54.869 111.691 49.775C113.324 47.4102 115.635 48.1744 118.624 52.0679Z" fill="black" fill-opacity="0.199355"/>
</g>
<g id="RArm">
<path id="Path_13" fill-rule="evenodd" clip-rule="evenodd" d="M128.136 71.3469C128.136 71.3469 135.185 66.2262 137.343 65.632C139.501 65.0377 152.139 64.3238 152.059 65.6666C151.969 67.1052 145.181 67.0224 144.477 67.7303C143.774 68.4376 143.614 73.2749 140.956 73.818C138.302 74.3611 130.347 75.2973 130.347 75.2973L128.136 71.3469Z" fill="#FFD7D7"/>
<path id="Path_14" fill-rule="evenodd" clip-rule="evenodd" d="M109.383 49.6649C101.957 58.2679 95.6159 71.3723 93.1821 76.4813C90.7482 81.5903 93.2034 89.2964 103.906 87.7835C114.588 86.2746 131.586 78.0759 133.466 75.6843C135.347 73.2926 132.49 68.9408 128.892 69.5104C125.559 70.0375 109.025 75.8079 109.025 75.8079C109.025 75.8079 119.662 60.3327 122.259 56.1842C126.598 49.2559 115.925 42.0849 109.383 49.6649Z" fill="#3A6DB3"/>
<path id="Path_15" fill-rule="evenodd" clip-rule="evenodd" d="M109.193 75.7023C109.193 75.7023 103.622 77.9741 104.302 77.0213C104.981 76.0685 111.319 72.7212 111.319 72.7212L109.193 75.7023Z" fill="black" fill-opacity="0.302803"/>
</g>
<g id="RLeg">
<path id="Path_16" fill-rule="evenodd" clip-rule="evenodd" d="M114.602 92.9419C114.602 92.9419 103.749 111.755 119.001 118.216C133.752 124.463 177.91 117.074 177.91 117.074C177.91 117.074 177.121 122.288 177.91 126.939C179.971 139.085 189.772 159.322 191.846 161.864C194.714 165.381 203.449 162.729 203.614 159.801C203.778 156.873 197.028 119.479 196.002 112.348C194.981 105.217 191.757 104.181 182.341 102.232C180.178 101.784 154.596 96.566 152.252 96.7181C132.116 98.0249 114.602 92.9419 114.602 92.9419Z" fill="#42474F"/>
<path id="Path_17" fill-rule="evenodd" clip-rule="evenodd" d="M126.5 116.274C141.103 117.617 179.766 114.849 181.319 116.107C182.801 117.308 182.554 138.203 185.879 150.298L185.374 149.156C182.246 142.026 178.999 133.354 177.91 126.939C177.121 122.289 177.91 117.074 177.91 117.074L176.13 117.357C167.736 118.651 131.982 123.714 119.001 118.216C111.968 115.237 109.098 110.288 110.391 103.369C112.618 111.19 117.987 115.491 126.5 116.274Z" fill="#52565E"/>
<ellipse id="Oval" cx="2.43421" cy="3.73859" rx="2.43421" ry="3.73859" transform="matrix(0.982562 0.185938 -0.271109 0.962549 200.852 109.254)" fill="#52565E"/>
<ellipse id="Oval_2" cx="3.23196" cy="4.10291" rx="3.23196" ry="4.10291" transform="matrix(0.973472 -0.228804 0.330205 0.943909 186.274 107.822)" fill="#52565E"/>
</g>
</g>
<path id="Rectangle_9" fill-rule="evenodd" clip-rule="evenodd" d="M142.535 136.169C142.535 122.852 131.74 112.057 118.423 112.057L55.3845 112.057V168.4C55.3845 169.365 56.1668 170.147 57.1317 170.147H142.535L142.535 136.169Z" fill="#DFDFDF"/>
<g id="Group 37">
<path id="Rectangle_10" fill-rule="evenodd" clip-rule="evenodd" d="M188.504 3.5109C188.504 1.89603 189.813 0.586914 191.428 0.586914L192.325 0.586914C193.444 0.586914 194.352 1.4945 194.352 2.61407C194.352 2.95533 194.628 3.23198 194.97 3.23198H211.064C213.273 3.23198 215.064 5.02284 215.064 7.23198V14.6078C215.064 16.8169 213.273 18.6078 211.064 18.6078H192.504C190.295 18.6078 188.504 16.8169 188.504 14.6078V3.5109Z" fill="url(#paint0_linear_19_1796)"/>
<path id="Rectangle_11" fill-rule="evenodd" clip-rule="evenodd" d="M194.584 3.21002C194.696 2.63786 195.198 2.2251 195.781 2.2251H214.604C215.371 2.2251 215.948 2.9256 215.801 3.67873L213.069 17.6228C212.957 18.1949 212.456 18.6077 211.873 18.6077H193.05C192.282 18.6077 191.706 17.9072 191.853 17.1541L194.584 3.21002Z" fill="url(#paint1_linear_19_1796)"/>
<path id="Rectangle_12" fill-rule="evenodd" clip-rule="evenodd" d="M214.065 6.32104C216.655 6.32104 218.563 8.74547 217.953 11.2629L217.456 13.3109C216.587 16.8997 213.374 19.4271 209.681 19.4271H193.589C190.998 19.4271 189.091 17.0027 189.701 14.4853L190.197 12.4373C191.067 8.84847 194.28 6.32104 197.972 6.32104L214.065 6.32104Z" fill="#FFCC7B"/>
</g>
<g id="Group 79">
<g id="Group 86">
<path id="Path 113" fill-rule="evenodd" clip-rule="evenodd" d="M25.2381 112.318C18.76 100.542 12.8748 88.4483 7.48702 76.0874C19.8972 85.4862 29.5478 96.9367 28.1735 112.318H25.2381Z" fill="#57E295"/>
<path id="Rectangle_13" fill-rule="evenodd" clip-rule="evenodd" d="M28.6909 113.547C30.2241 93.4679 29.5744 74.8202 16.7237 64.1719C18.4962 86.2176 21.812 101.748 26.0116 113.547H28.6909Z" fill="#28C76F"/>
<path id="Path 112" fill-rule="evenodd" clip-rule="evenodd" d="M29.2805 111.456C36.4602 97.4244 43.6747 93.4024 49.6383 78.9995C30.121 87.1316 28.8975 93.8466 25.0666 111.456H29.2805Z" fill="#57E295"/>
<path id="Path 114" fill-rule="evenodd" clip-rule="evenodd" d="M33.1447 111.456L46.0245 97.4248C39.8041 98.8496 29.4068 101.157 29.4068 111.456H33.1447Z" fill="#28C76F"/>
<path id="Path 116" fill-rule="evenodd" clip-rule="evenodd" d="M21.0981 111.456H16.8014C14.071 106.875 10.2232 103.721 0.914368 107.544C7.01622 100.076 19.536 97.8158 21.0981 111.456Z" fill="#57E295"/>
<path id="Path 117" fill-rule="evenodd" clip-rule="evenodd" d="M25.0505 111.456H21.4775C14.9198 103.921 12.1004 100.637 5.3141 94.2021C14.2539 96.928 23.4304 100.637 25.0505 111.456Z" fill="#28C76F"/>
</g>
<g id="Group 85">
<path id="Rectangle_14" fill-rule="evenodd" clip-rule="evenodd" d="M34.0328 110.368H15.9829C15.2954 110.368 14.7381 110.814 14.7381 111.363V114.1C10.1738 118.702 7.89158 123.304 7.89158 127.906C7.89158 132.366 9.84045 136.826 13.7382 141.286C13.971 141.553 14.3521 141.712 14.7587 141.712H35.257C35.6637 141.712 36.0447 141.553 36.2775 141.286C40.1753 136.826 42.1241 132.366 42.1241 127.906C42.1241 123.39 39.9273 118.875 35.5336 114.36L35.2776 114.1V111.363C35.2776 110.814 34.7203 110.368 34.0328 110.368Z" fill="#3A6DB3"/>
<mask id="mask0_19_1796" style="mask-type:luminance" maskUnits="userSpaceOnUse" x="7" y="110" width="36" height="32">
<path id="Rectangle_15" fill-rule="evenodd" clip-rule="evenodd" d="M34.0328 110.368H15.9829C15.2954 110.368 14.7381 110.814 14.7381 111.363V114.1C10.1738 118.702 7.89158 123.304 7.89158 127.906C7.89158 132.366 9.84045 136.826 13.7382 141.286C13.971 141.553 14.3521 141.712 14.7587 141.712H35.257C35.6637 141.712 36.0447 141.553 36.2775 141.286C40.1753 136.826 42.1241 132.366 42.1241 127.906C42.1241 123.39 39.9273 118.875 35.5336 114.36L35.2776 114.1V111.363C35.2776 110.814 34.7203 110.368 34.0328 110.368Z" fill="white"/>
</mask>
<g mask="url(#mask0_19_1796)">
<path id="Rectangle_16" fill-rule="evenodd" clip-rule="evenodd" d="M46.481 109.506H30.2983C38.0457 123.922 22.7635 132.459 30.2983 146.82H46.481V109.506Z" fill="#857AF9"/>
</g>
</g>
</g>
</g>
<defs>
<linearGradient id="paint0_linear_19_1796" x1="217.147" y1="15.2157" x2="217.147" y2="-5.63264" gradientUnits="userSpaceOnUse">
<stop stop-color="#FF8C19"/>
<stop offset="1" stop-color="#FFC967"/>
</linearGradient>
<linearGradient id="paint1_linear_19_1796" x1="214.011" y1="7.36611" x2="214.011" y2="-2.27651" gradientUnits="userSpaceOnUse">
<stop stop-color="#F8FDFF"/>
<stop offset="1" stop-color="#AAD4FF"/>
</linearGradient>
</defs>
</svg>
