<svg width="520" height="200" viewBox="0 0 520 200" fill="none" xmlns="http://www.w3.org/2000/svg">
<rect width="520" height="200" rx="6" fill="#FCFCFC"/>
<mask id="mask0_19_1679" style="mask-type:luminance" maskUnits="userSpaceOnUse" x="0" y="0" width="520" height="200">
<rect width="520" height="200" rx="6" fill="white"/>
</mask>
<g mask="url(#mask0_19_1679)">
<path fill-rule="evenodd" clip-rule="evenodd" d="M304.616 157.319L294.753 234.87L299.924 234.802L309.787 158.045L304.616 157.319Z" fill="#D2D2D2"/>
<path fill-rule="evenodd" clip-rule="evenodd" d="M308.808 157.319L318.671 234.87L313.5 234.802L303.637 158.045L308.808 157.319Z" fill="#D2D2D2"/>
<path fill-rule="evenodd" clip-rule="evenodd" d="M338.877 157.319L348.74 234.87L343.569 234.802L333.706 158.045L338.877 157.319Z" fill="#D2D2D2"/>
<path fill-rule="evenodd" clip-rule="evenodd" d="M272.102 169.509C267.627 169.509 264 165.882 264 161.407C264 156.933 267.627 153.305 272.102 153.305H303.302C309.022 153.305 313.803 148.955 314.341 143.261L319.276 91.0447C319.814 85.3505 324.595 81 330.315 81H347.697C354.158 81 359.25 86.5006 358.753 92.9416L353.631 159.275C353.185 165.051 348.368 169.509 342.576 169.509H272.102Z" fill="#D2D2D2"/>
<path fill-rule="evenodd" clip-rule="evenodd" d="M264.002 161.338C264.033 161.339 264.065 161.339 264.097 161.339H334.377C340.169 161.339 344.985 156.881 345.432 151.107L350.549 85.0211C350.648 83.7458 350.527 82.5072 350.221 81.3409C349.345 81.1185 348.426 81 347.478 81H330.192C324.473 81 319.693 85.3488 319.153 91.0417L314.223 143.058C313.683 148.751 308.903 153.1 303.184 153.1H272.081C267.618 153.1 264 156.718 264 161.181C264 161.234 264.001 161.286 264.002 161.338Z" fill="#B2B0B0"/>
<path fill-rule="evenodd" clip-rule="evenodd" d="M308.228 133.918C300.805 134.249 259.486 143.356 251.98 144.903C244.473 146.451 238.126 154.823 243.851 164.518C250.28 175.401 266.869 206.309 270.896 213.277C272.89 216.725 282.947 214.792 280.584 209.003C276.181 198.213 274.135 171.107 262.908 161.224C262.908 161.224 300.666 167.773 316.976 160.271C328.83 154.818 326.148 133.12 308.228 133.918Z" fill="#42474F"/>
<path fill-rule="evenodd" clip-rule="evenodd" d="M256.442 86.1154C256.442 86.1154 256.526 80.0955 254.413 76.9495C252.3 73.8036 252.216 70.4618 250.617 70.5712C249.018 70.6806 250.601 78.448 250.601 78.448C250.601 78.448 248.572 77.6755 247.115 76.6983C245.657 75.7212 241.237 70.9041 240.204 71.7577C238.453 73.2122 241.274 81.4165 242.81 83.0568C244.351 84.6975 252.772 90.093 252.772 90.093L273.396 111.11L277.268 100.433L256.442 86.1154Z" fill="#FFE0D1"/>
<path fill-rule="evenodd" clip-rule="evenodd" d="M302.063 84.1294C298.609 92.1117 292.286 106.775 289.68 111.15C286.413 116.629 281.262 119.043 275.23 114.978C273.629 113.899 268.751 109.776 268.751 109.776L274.654 96.8289L278.483 99.9781C278.483 99.9781 284.964 83.4215 290.177 73.8304C294.692 65.5326 307.319 71.9943 302.063 84.1294Z" fill="#FFB66F"/>
<path fill-rule="evenodd" clip-rule="evenodd" d="M278.416 99.9872C278.416 99.9872 276.675 105.871 276.268 105.53C275.861 105.19 276.579 98.4495 276.579 98.4495L278.416 99.9872Z" fill="black" fill-opacity="0.159856"/>
<path fill-rule="evenodd" clip-rule="evenodd" d="M276.121 97.545L271.184 114.021L265.941 109.92L273.239 95.3137L276.121 97.545Z" fill="#FFEDC2"/>
<path fill-rule="evenodd" clip-rule="evenodd" d="M308.332 28.4331C308.332 28.4331 310.927 24.1638 315.039 24.4826C319.152 24.8014 324.139 31.0532 323.875 37.9825C323.619 44.9108 325.149 46.0001 328.097 50.0059C336.02 60.7834 323.763 73.4094 323.763 73.4094L307.483 73.4207L306.876 43.1981L308.332 28.4331Z" fill="#42474F"/>
<path fill-rule="evenodd" clip-rule="evenodd" d="M314.789 30.9274C325.88 38.481 319.518 47.255 318.407 49.3149C316.265 64.3013 320.666 65.069 327.305 68.4147L324.993 72.5356L315.477 70.7518L307.467 31.6872L314.789 30.9274Z" fill="black" fill-opacity="0.199355"/>
<path fill-rule="evenodd" clip-rule="evenodd" d="M320.016 67.403C320.016 67.403 314.361 66.2702 314.193 58.3642C314.025 50.4581 314.956 47.7594 314.956 47.7594L304.292 47.5676C304.292 47.5676 304.176 56.3788 304.174 59.5658C304.169 67.315 298.185 68.2138 298.185 68.2138C298.185 68.2138 299.429 74.3437 309.092 74.8852C316.637 75.3087 320.016 67.403 320.016 67.403Z" fill="#F9C7B0"/>
<path fill-rule="evenodd" clip-rule="evenodd" d="M314.566 30.6656C314.956 26.1049 307.415 24.9992 306.018 28.5222C306.018 28.5222 305.633 31.6616 308.087 32.8855C311.405 34.5343 314.566 30.6656 314.566 30.6656Z" fill="#FB9934"/>
<path fill-rule="evenodd" clip-rule="evenodd" d="M315.568 42.4117C320.183 41.2432 320.867 48.1936 316.031 49.2119C316.031 49.2119 315.273 59.4529 305.525 61.5249C297.609 63.2076 294.704 52.0765 294.156 49.8494C293.571 47.475 291.891 39.6223 291.891 39.6223L314.156 34.879L315.568 42.4117Z" fill="#FFE0D1"/>
<path fill-rule="evenodd" clip-rule="evenodd" d="M314.016 47.1174C313.178 47.0699 312.031 42.7315 312.031 42.7315C309.561 42.7664 309.03 42.3216 306.616 39.7731C299.018 43.1547 293.726 44.8193 294.262 50.7745C294.262 50.7745 285.436 38.6369 294.893 31.6459C303.212 25.5027 313.765 27.37 317.014 34.3197C319.312 39.2244 318.741 43.3066 318.741 43.3066C318.741 43.3066 317.128 41.6483 315.249 42.5474C313.37 43.4466 314.854 47.1648 314.016 47.1174Z" fill="#42474F"/>
<path d="M306.027 54.647C306.027 54.647 304.122 57.0998 301.043 55.8367" stroke="#F77B7B" stroke-width="1.5" stroke-linecap="round"/>
<path d="M304.977 57.2415C304.325 57.7273 303.635 57.8993 302.944 57.7001" stroke="#F49494" stroke-linecap="round"/>
<path d="M315.869 46.1638C315.59 45.0849 315.74 44.1492 316.817 43.7385" stroke="#F77B7B" stroke-linecap="round"/>
<path fill-rule="evenodd" clip-rule="evenodd" d="M300.414 67.1582C300.284 67.152 295.724 69.1462 295.199 69.915C291.778 74.9235 285.496 92.5516 285.173 96.3757C284.808 100.787 291.181 107.814 291.259 114.2C291.328 120.586 288.533 139.816 289.617 141.612C290.693 143.408 297.763 151.941 299.238 151.976C300.721 152.011 301.828 147.531 304.075 147.628C306.313 147.726 310.98 153.665 312.993 153.622C314.997 153.579 335.764 140.451 334.177 136.71C332.581 132.97 325.172 123.674 325.927 118.578C326.673 113.482 332.633 94.6708 334.784 88.2685C336.927 81.8662 338.653 76.7661 334.654 74.0112C330.655 71.2562 317.643 66.217 317.643 66.217L305.992 72.7203C305.992 72.7203 301.091 67.1908 300.414 67.1582Z" fill="#FF9F43"/>
<path fill-rule="evenodd" clip-rule="evenodd" d="M304.557 72.5396C301.063 84.1348 296.267 95.56 294.346 106.433L299.933 103.429L305.086 107.325C304.722 96.0214 306.624 84.1523 307.498 72.5396H304.557Z" fill="#FFF6E1"/>
<path fill-rule="evenodd" clip-rule="evenodd" d="M324.966 81.4428L325.099 82.3804C326.664 94.0246 324.811 108.154 321.601 110.31C318.324 112.51 305.569 110.351 305.569 112.094C305.569 113.836 323.196 129.807 320.302 137.442C318.711 141.64 319.244 145.373 321.9 148.642L322.672 148.125C328.692 144.05 335.084 138.848 334.177 136.71C332.581 132.97 325.172 123.674 325.927 118.578C326.643 113.686 332.164 96.1537 334.508 89.0946L335.255 86.8565C336.122 84.2323 336.845 81.8552 337.019 79.8041L336.481 79.4556C327.871 73.9485 324.033 74.6111 324.966 81.4428Z" fill="black" fill-opacity="0.159856"/>
<path fill-rule="evenodd" clip-rule="evenodd" d="M319.793 67.0382L317.643 66.217L305.737 72.3837C305.737 72.3837 307.975 78.0685 311.94 75.2376C315.338 72.8169 313.904 70.6868 316.568 69.5879C319.223 68.4891 319.793 67.0382 319.793 67.0382Z" fill="#FFF6E1"/>
<path fill-rule="evenodd" clip-rule="evenodd" d="M305.737 72.3841C304.873 74.297 303.119 75.4147 302.212 75.0672C300.715 74.4933 301.357 72.2066 300.767 71.0515C300.345 70.2319 300.072 70.1082 299.702 69.3387C299.358 68.6329 299.344 67.7857 299.432 67.5519L300.603 67.0208C300.603 67.0208 302.213 68.5355 302.962 69.3387C303.895 70.3398 305.737 72.3841 305.737 72.3841Z" fill="#FFF6E1"/>
<path fill-rule="evenodd" clip-rule="evenodd" d="M318.844 103.095C318.844 103.095 311.835 96.9127 309.689 96.1952C307.543 95.4777 294.976 94.6158 295.055 96.2371C295.145 97.9741 301.895 97.8741 302.595 98.7287C303.294 99.5828 303.453 105.423 306.097 106.079C308.735 106.735 316.646 107.865 316.646 107.865L335.567 119.238L336.375 108.847L318.844 103.095Z" fill="#FFE0D1"/>
<path fill-rule="evenodd" clip-rule="evenodd" d="M337.492 76.9177C344.877 87.3048 351.182 103.127 353.603 109.295C356.023 115.464 353.581 124.768 342.939 122.942C341.142 122.633 337.111 121.396 337.111 121.396L334.568 107.11L337.848 108.482C337.848 108.482 327.271 89.7977 324.688 84.7889C320.374 76.4238 330.987 67.7656 337.492 76.9177Z" fill="#FFB66F"/>
<path fill-rule="evenodd" clip-rule="evenodd" d="M337.848 108.482C337.848 108.482 343.221 111.097 342.545 109.947C341.87 108.797 335.822 104.849 335.822 104.849L337.848 108.482Z" fill="black" fill-opacity="0.159856"/>
<path fill-rule="evenodd" clip-rule="evenodd" d="M337.336 107.822L339.093 123.27L332.145 121.07L333.194 105.93L337.336 107.822Z" fill="#FFEDC2"/>
<path fill-rule="evenodd" clip-rule="evenodd" d="M330.675 130.792C330.675 130.792 344.722 151.886 327.928 161.307C313.585 169.353 269.349 159.929 269.349 159.929C269.349 159.929 270.134 166.225 269.349 171.84C267.3 186.505 257.554 210.938 255.492 214.008C252.64 218.254 243.953 215.052 243.79 211.517C243.626 207.982 250.338 162.833 251.359 154.223C252.374 145.613 255.58 144.362 264.944 142.009C267.095 141.468 292.533 135.168 294.863 135.351C314.886 136.929 330.675 130.792 330.675 130.792Z" fill="#42474F"/>
<path opacity="0.439941" fill-rule="evenodd" clip-rule="evenodd" d="M320.471 158.963C305.95 160.585 267.504 157.242 265.96 158.761C264.486 160.211 264.732 185.441 261.425 200.043C264.682 191.195 268.208 180.004 269.349 171.84C270.134 166.225 269.349 159.929 269.349 159.929L270.851 160.228C278.689 161.745 315.026 168.259 327.928 161.307C335.496 157.23 338.424 150.916 336.712 142.367C334.648 152.452 329.234 157.984 320.471 158.963Z" fill="white" fill-opacity="0.192499"/>
<ellipse cx="2.44034" cy="4.46024" rx="2.44034" ry="4.46024" transform="matrix(-0.97437 0.224951 0.224951 0.97437 246.54 150.483)" fill="white" fill-opacity="0.192499"/>
<ellipse cx="3.2535" cy="4.86614" rx="3.2535" ry="4.86614" transform="matrix(-0.961262 -0.275637 -0.275637 0.961262 261.025 148.76)" fill="white" fill-opacity="0.192499"/>
<path d="M219.424 74.2486C218.593 72.7075 219.59 70.8157 221.331 70.6293L243.266 68.281C244.243 68.1764 245.189 68.6621 245.673 69.5169L259.957 94.7443C260.798 96.2288 259.912 98.0977 258.231 98.3868L236.372 102.145C235.329 102.324 234.288 101.817 233.786 100.886L219.424 74.2486Z" fill="#3A6DB3"/>
<path fill-rule="evenodd" clip-rule="evenodd" d="M220.419 74.1098C219.624 72.6152 220.538 70.7829 222.21 70.5191L243.598 67.1441C244.636 66.9803 245.664 67.4932 246.157 68.4212L259.882 94.2338C260.677 95.7283 259.762 97.5606 258.09 97.8245L236.703 101.199C235.665 101.363 234.637 100.85 234.143 99.9223L220.419 74.1098Z" fill="#3A6DB3"/>
<path d="M220.957 72.4292L244.737 68.3824L259.351 95.8661L235.684 99.4636L220.957 72.4292Z" fill="white"/>
<path d="M227.09 69.1452C226.8 68.6526 227.105 68.0236 227.672 67.9466L236.51 66.745C237.148 66.6582 237.777 66.9632 238.104 67.5187L239.54 69.9586C239.83 70.4511 239.525 71.0801 238.959 71.1571L230.121 72.3587C229.482 72.4456 228.853 72.1406 228.526 71.585L227.09 69.1452Z" fill="#3A6DB3"/>
<path fill-rule="evenodd" clip-rule="evenodd" d="M239.513 76.4099C239.83 76.2415 240.223 76.3614 240.391 76.6776C240.547 76.9712 240.454 77.331 240.187 77.5157L240.122 77.5551L229.538 79.3356C229.222 79.504 228.829 79.3842 228.66 79.0679C228.504 78.7743 228.597 78.4146 228.865 78.2299L228.929 78.1905L239.513 76.4099Z" fill="#A7C3FF"/>
<path fill-rule="evenodd" clip-rule="evenodd" d="M242.557 82.1365C242.874 81.9681 243.267 82.0879 243.435 82.4042C243.591 82.6978 243.499 83.0575 243.231 83.2422L243.166 83.2816L232.583 85.0622C232.266 85.2306 231.873 85.1107 231.705 84.7945C231.549 84.5009 231.641 84.1411 231.909 83.9564L231.974 83.917L242.557 82.1365Z" fill="#A7C3FF"/>
<path fill-rule="evenodd" clip-rule="evenodd" d="M245.602 87.8621C245.919 87.6937 246.312 87.8135 246.48 88.1298C246.636 88.4234 246.543 88.7831 246.276 88.9678L246.211 89.0072L235.627 90.7878C235.31 90.9562 234.917 90.8363 234.749 90.5201C234.593 90.2264 234.686 89.8667 234.953 89.682L235.018 89.6426L245.602 87.8621Z" fill="#A7C3FF"/>
<path fill-rule="evenodd" clip-rule="evenodd" d="M218.587 132.062H234.93V235.459H218.587V132.062Z" fill="#D2D2D2"/>
<path fill-rule="evenodd" clip-rule="evenodd" d="M218.587 128H228.393V235.458H218.587V128Z" fill="#EBEBEB"/>
<path fill-rule="evenodd" clip-rule="evenodd" d="M144.234 132.062H225.131V163.074H160.577V235.459H144.234V132.062Z" fill="#D2D2D2"/>
<path fill-rule="evenodd" clip-rule="evenodd" d="M144.234 132.062H154.039V235.459H144.234V132.062Z" fill="#EBEBEB"/>
<path fill-rule="evenodd" clip-rule="evenodd" d="M346.539 132.062H362.882V235.459H346.539V132.062Z" fill="#C5C5C5"/>
<path fill-rule="evenodd" clip-rule="evenodd" d="M272.185 132.062H353.083V170.451H288.528V235.459H272.185V132.062Z" fill="#D2D2D2"/>
<path fill-rule="evenodd" clip-rule="evenodd" d="M157.302 128L281.896 128V170.375H157.302V128Z" fill="#EBEBEB"/>
<path fill-rule="evenodd" clip-rule="evenodd" d="M269.734 132.062H279.54V170.375H269.734V132.062Z" fill="#C3C3C3"/>
<path fill-rule="evenodd" clip-rule="evenodd" d="M272.185 132.062H281.991V235.459H272.185V132.062Z" fill="#EBEBEB"/>
<path fill-rule="evenodd" clip-rule="evenodd" d="M275.493 134.093C275.493 130.728 278.221 128 281.586 128L365.784 128C369.149 128 371.877 130.728 371.877 134.093C371.877 137.458 369.149 140.186 365.784 140.186H281.586C278.221 140.186 275.493 137.458 275.493 134.093Z" fill="#C5C5C5"/>
<path fill-rule="evenodd" clip-rule="evenodd" d="M147.591 130.438H272.185V142.624H147.591V130.438Z" fill="#D2D2D2"/>
<path fill-rule="evenodd" clip-rule="evenodd" d="M135.497 134.093C135.497 130.728 138.225 128 141.59 128H284.069C287.435 128 290.163 130.728 290.163 134.093C290.163 137.458 287.435 140.186 284.069 140.186H141.59C138.225 140.186 135.497 137.458 135.497 134.093Z" fill="#EBEBEB"/>
<path fill-rule="evenodd" clip-rule="evenodd" d="M302.545 116.55H306.587C307.367 116.55 308 117.186 308 117.972V119.919C308 121.78 306.5 123.289 304.65 123.289H302.545C302.21 123.289 301.939 123.016 301.939 122.679C301.939 122.343 302.21 122.07 302.545 122.07H304.65C305.831 122.07 306.788 121.107 306.788 119.919V117.972C306.788 117.859 306.698 117.769 306.587 117.769H302.545C302.21 117.769 301.939 117.496 301.939 117.159C301.939 116.823 302.21 116.55 302.545 116.55Z" fill="#3A6DB3"/>
<path fill-rule="evenodd" clip-rule="evenodd" d="M289.122 115C288.23 115 287.507 115.728 287.507 116.625V120.688C287.507 123.612 289.702 126.022 292.525 126.339L292.526 127.188H299.597L299.597 126.321C302.349 125.938 304.468 123.562 304.468 120.688V116.625C304.468 115.728 303.745 115 302.853 115H289.122Z" fill="#3A6DB3"/>
<path fill-rule="evenodd" clip-rule="evenodd" d="M304.769 126.795C304.769 126.563 304.581 126.375 304.35 126.375H288.228C287.996 126.375 287.808 126.563 287.808 126.795C287.808 127.016 287.979 127.199 288.2 127.214L294.144 127.611H298.385L304.377 127.214C304.598 127.199 304.769 127.016 304.769 126.795Z" fill="#3A6DB3"/>
<path fill-rule="evenodd" clip-rule="evenodd" d="M194.23 126.551C194.23 125.939 194.726 125.443 195.338 125.443H273.851C274.463 125.443 274.959 125.939 274.959 126.551C274.959 127.163 274.463 127.658 273.851 127.658H195.338C194.726 127.658 194.23 127.163 194.23 126.551Z" fill="#3A6DB3"/>
<path fill-rule="evenodd" clip-rule="evenodd" d="M247.409 126.551C247.409 125.939 247.905 125.443 248.517 125.443H273.851C274.463 125.443 274.959 125.939 274.959 126.551C274.959 127.163 274.463 127.658 273.851 127.658H248.517C247.905 127.658 247.409 127.163 247.409 126.551Z" fill="#3A6DB3"/>
<path fill-rule="evenodd" clip-rule="evenodd" d="M190.527 96.0632C190.248 93.9091 191.925 92 194.097 92H241.66C243.469 92 244.997 93.3427 245.23 95.1368L248.647 121.475C248.926 123.629 247.249 125.539 245.076 125.539H197.514C195.705 125.539 194.177 124.196 193.944 122.402L190.527 96.0632Z" fill="#3A6DB3"/>
<path fill-rule="evenodd" clip-rule="evenodd" d="M190.527 96.0632C190.248 93.9091 191.925 92 194.097 92H239.919C241.728 92 243.256 93.3427 243.489 95.1368L246.906 121.475C247.186 123.629 245.508 125.539 243.336 125.539H197.514C195.705 125.539 194.177 124.196 193.944 122.402L190.527 96.0632Z" fill="#3A6DB3"/>
<ellipse cx="217.823" cy="109.303" rx="3.44749" ry="3.74863" transform="rotate(-37 217.823 109.303)" fill="white"/>
<path fill-rule="evenodd" clip-rule="evenodd" d="M359.478 196.571C366.242 181.267 372.388 165.55 378.013 149.485C365.055 161.7 354.978 176.581 356.413 196.571H359.478Z" fill="#57E295"/>
<path fill-rule="evenodd" clip-rule="evenodd" d="M355.873 198.169C354.272 172.074 354.95 147.839 368.369 134C366.518 162.651 363.056 182.834 358.67 198.169H355.873Z" fill="#28C76F"/>
<path fill-rule="evenodd" clip-rule="evenodd" d="M355.257 195.451C347.76 177.216 340.227 171.989 334 153.271C354.38 163.839 355.657 172.566 359.657 195.451H355.257Z" fill="#57E295"/>
<path fill-rule="evenodd" clip-rule="evenodd" d="M351.222 195.451L337.773 177.216C344.269 179.068 355.125 182.066 355.125 195.451H351.222Z" fill="#28C76F"/>
<path fill-rule="evenodd" clip-rule="evenodd" d="M363.801 195.452H368.287C371.139 189.498 375.156 185.399 384.876 190.368C378.505 180.662 365.432 177.724 363.801 195.452Z" fill="#57E295"/>
<path fill-rule="evenodd" clip-rule="evenodd" d="M359.674 195.452H363.405C370.252 185.659 373.196 181.391 380.282 173.028C370.948 176.571 361.366 181.391 359.674 195.452Z" fill="#28C76F"/>
<path fill-rule="evenodd" clip-rule="evenodd" d="M350.295 194.038H369.142C369.86 194.038 370.442 194.617 370.442 195.331V198.887C375.208 204.868 377.591 210.849 377.591 216.83C377.591 222.626 375.556 228.423 371.486 234.22C371.243 234.566 370.845 234.772 370.421 234.772H349.017C348.592 234.772 348.194 234.566 347.951 234.22C343.881 228.423 341.846 222.626 341.846 216.83C341.846 210.962 344.14 205.094 348.728 199.226L348.995 198.887V195.331C348.995 194.617 349.577 194.038 350.295 194.038Z" fill="#3A6DB3"/>
<mask id="mask1_19_1679" style="mask-type:luminance" maskUnits="userSpaceOnUse" x="341" y="194" width="37" height="41">
<path fill-rule="evenodd" clip-rule="evenodd" d="M350.295 194.038H369.142C369.86 194.038 370.442 194.617 370.442 195.331V198.887C375.208 204.868 377.591 210.849 377.591 216.83C377.591 222.626 375.556 228.423 371.486 234.22C371.243 234.566 370.845 234.772 370.421 234.772H349.017C348.592 234.772 348.194 234.566 347.951 234.22C343.881 228.423 341.846 222.626 341.846 216.83C341.846 210.962 344.14 205.094 348.728 199.226L348.995 198.887V195.331C348.995 194.617 349.577 194.038 350.295 194.038Z" fill="white"/>
</mask>
<g mask="url(#mask1_19_1679)">
<path fill-rule="evenodd" clip-rule="evenodd" d="M337.297 192.918H354.194C346.105 211.652 362.062 222.747 354.194 241.411H337.297V192.918Z" fill="#3A6DB3"/>
</g>
</g>
</svg>
