<svg width="283" height="46" viewBox="0 0 283 46" fill="none" xmlns="http://www.w3.org/2000/svg">
<g clip-path="url(#clip0_19_1780)">
<path d="M4.752 43.072C3.664 43.072 2.816 42.76 2.208 42.136C1.6 41.512 1.296 40.604 1.296 39.412V34.6H2.184V39.376C2.184 40.352 2.404 41.08 2.844 41.56C3.284 42.04 3.92 42.28 4.752 42.28C5.592 42.28 6.232 42.04 6.672 41.56C7.112 41.08 7.332 40.352 7.332 39.376V34.6H8.196V39.412C8.196 40.604 7.892 41.512 7.284 42.136C6.684 42.76 5.84 43.072 4.752 43.072ZM12.3839 43.06C11.8719 43.06 11.3799 42.988 10.9079 42.844C10.4439 42.692 10.0799 42.504 9.81591 42.28L10.1999 41.608C10.4639 41.816 10.7959 41.988 11.1959 42.124C11.5959 42.252 12.0119 42.316 12.4439 42.316C13.0199 42.316 13.4439 42.228 13.7159 42.052C13.9959 41.868 14.1359 41.612 14.1359 41.284C14.1359 41.052 14.0599 40.872 13.9079 40.744C13.7559 40.608 13.5639 40.508 13.3319 40.444C13.0999 40.372 12.7919 40.304 12.4079 40.24C11.8959 40.144 11.4839 40.048 11.1719 39.952C10.8599 39.848 10.5919 39.676 10.3679 39.436C10.1519 39.196 10.0439 38.864 10.0439 38.44C10.0439 37.912 10.2639 37.48 10.7039 37.144C11.1439 36.808 11.7559 36.64 12.5399 36.64C12.9479 36.64 13.3559 36.696 13.7639 36.808C14.1719 36.912 14.5079 37.052 14.7719 37.228L14.3999 37.912C13.8799 37.552 13.2599 37.372 12.5399 37.372C11.9959 37.372 11.5839 37.468 11.3039 37.66C11.0319 37.852 10.8959 38.104 10.8959 38.416C10.8959 38.656 10.9719 38.848 11.1239 38.992C11.2839 39.136 11.4799 39.244 11.7119 39.316C11.9439 39.38 12.2639 39.448 12.6719 39.52C13.1759 39.616 13.5799 39.712 13.8839 39.808C14.1879 39.904 14.4479 40.068 14.6639 40.3C14.8799 40.532 14.9879 40.852 14.9879 41.26C14.9879 41.812 14.7559 42.252 14.2919 42.58C13.8359 42.9 13.1999 43.06 12.3839 43.06ZM22.059 40.108H16.779C16.827 40.764 17.079 41.296 17.535 41.704C17.991 42.104 18.567 42.304 19.263 42.304C19.655 42.304 20.015 42.236 20.343 42.1C20.671 41.956 20.955 41.748 21.195 41.476L21.675 42.028C21.395 42.364 21.043 42.62 20.619 42.796C20.203 42.972 19.743 43.06 19.239 43.06C18.591 43.06 18.015 42.924 17.511 42.652C17.015 42.372 16.627 41.988 16.347 41.5C16.067 41.012 15.927 40.46 15.927 39.844C15.927 39.228 16.059 38.676 16.323 38.188C16.595 37.7 16.963 37.32 17.427 37.048C17.899 36.776 18.427 36.64 19.011 36.64C19.595 36.64 20.119 36.776 20.583 37.048C21.047 37.32 21.411 37.7 21.675 38.188C21.939 38.668 22.071 39.22 22.071 39.844L22.059 40.108ZM19.011 37.372C18.403 37.372 17.891 37.568 17.475 37.96C17.067 38.344 16.835 38.848 16.779 39.472H21.255C21.199 38.848 20.963 38.344 20.547 37.96C20.139 37.568 19.627 37.372 19.011 37.372ZM29.5258 43.06C28.9178 43.06 28.3698 42.924 27.8818 42.652C27.3938 42.372 27.0098 41.988 26.7298 41.5C26.4498 41.012 26.3098 40.46 26.3098 39.844C26.3098 39.228 26.4498 38.676 26.7298 38.188C27.0098 37.7 27.3938 37.32 27.8818 37.048C28.3698 36.776 28.9178 36.64 29.5258 36.64C30.1338 36.64 30.6818 36.776 31.1698 37.048C31.6578 37.32 32.0378 37.7 32.3098 38.188C32.5898 38.676 32.7298 39.228 32.7298 39.844C32.7298 40.46 32.5898 41.012 32.3098 41.5C32.0378 41.988 31.6578 42.372 31.1698 42.652C30.6818 42.924 30.1338 43.06 29.5258 43.06ZM29.5258 42.304C29.9738 42.304 30.3738 42.204 30.7258 42.004C31.0858 41.796 31.3658 41.504 31.5658 41.128C31.7658 40.752 31.8658 40.324 31.8658 39.844C31.8658 39.364 31.7658 38.936 31.5658 38.56C31.3658 38.184 31.0858 37.896 30.7258 37.696C30.3738 37.488 29.9738 37.384 29.5258 37.384C29.0778 37.384 28.6738 37.488 28.3138 37.696C27.9618 37.896 27.6818 38.184 27.4738 38.56C27.2738 38.936 27.1738 39.364 27.1738 39.844C27.1738 40.324 27.2738 40.752 27.4738 41.128C27.6818 41.504 27.9618 41.796 28.3138 42.004C28.6738 42.204 29.0778 42.304 29.5258 42.304ZM36.5573 34.756C36.1893 34.756 35.9093 34.856 35.7173 35.056C35.5333 35.256 35.4413 35.552 35.4413 35.944V36.688H37.3853V37.408H35.4653V43H34.6133V37.408H33.4853V36.688H34.6133V35.908C34.6133 35.332 34.7773 34.876 35.1053 34.54C35.4413 34.204 35.9133 34.036 36.5213 34.036C36.7613 34.036 36.9933 34.072 37.2173 34.144C37.4413 34.208 37.6293 34.304 37.7813 34.432L37.4933 35.068C37.2453 34.86 36.9333 34.756 36.5573 34.756ZM44.2563 43.06C43.6483 43.06 43.1003 42.924 42.6123 42.652C42.1243 42.372 41.7403 41.988 41.4603 41.5C41.1803 41.012 41.0403 40.46 41.0403 39.844C41.0403 39.228 41.1803 38.676 41.4603 38.188C41.7403 37.7 42.1243 37.32 42.6123 37.048C43.1003 36.776 43.6483 36.64 44.2563 36.64C44.8643 36.64 45.4123 36.776 45.9003 37.048C46.3883 37.32 46.7683 37.7 47.0403 38.188C47.3203 38.676 47.4603 39.228 47.4603 39.844C47.4603 40.46 47.3203 41.012 47.0403 41.5C46.7683 41.988 46.3883 42.372 45.9003 42.652C45.4123 42.924 44.8643 43.06 44.2563 43.06ZM44.2563 42.304C44.7043 42.304 45.1043 42.204 45.4563 42.004C45.8163 41.796 46.0963 41.504 46.2963 41.128C46.4963 40.752 46.5963 40.324 46.5963 39.844C46.5963 39.364 46.4963 38.936 46.2963 38.56C46.0963 38.184 45.8163 37.896 45.4563 37.696C45.1043 37.488 44.7043 37.384 44.2563 37.384C43.8083 37.384 43.4043 37.488 43.0443 37.696C42.6923 37.896 42.4123 38.184 42.2043 38.56C42.0043 38.936 41.9043 39.364 41.9043 39.844C41.9043 40.324 42.0043 40.752 42.2043 41.128C42.4123 41.504 42.6923 41.796 43.0443 42.004C43.4043 42.204 43.8083 42.304 44.2563 42.304ZM54.8877 36.688V43H54.0717V41.848C53.8477 42.232 53.5397 42.532 53.1477 42.748C52.7557 42.956 52.3077 43.06 51.8037 43.06C50.9797 43.06 50.3277 42.832 49.8477 42.376C49.3757 41.912 49.1397 41.236 49.1397 40.348V36.688H49.9917V40.264C49.9917 40.928 50.1557 41.432 50.4837 41.776C50.8117 42.12 51.2797 42.292 51.8877 42.292C52.5517 42.292 53.0757 42.092 53.4597 41.692C53.8437 41.284 54.0357 40.72 54.0357 40V36.688H54.8877ZM58.0899 37.924C58.2899 37.5 58.5859 37.18 58.9779 36.964C59.3779 36.748 59.8699 36.64 60.4539 36.64V37.468L60.2499 37.456C59.5859 37.456 59.0659 37.66 58.6899 38.068C58.3139 38.476 58.1259 39.048 58.1259 39.784V43H57.2739V36.688H58.0899V37.924ZM68.555 42.616C68.395 42.76 68.195 42.872 67.955 42.952C67.723 43.024 67.479 43.06 67.223 43.06C66.631 43.06 66.175 42.9 65.855 42.58C65.535 42.26 65.375 41.808 65.375 41.224V37.408H64.247V36.688H65.375V35.308H66.227V36.688H68.147V37.408H66.227V41.176C66.227 41.552 66.319 41.84 66.503 42.04C66.695 42.232 66.967 42.328 67.319 42.328C67.495 42.328 67.663 42.3 67.823 42.244C67.991 42.188 68.135 42.108 68.255 42.004L68.555 42.616ZM75.3793 40.108H70.0993C70.1473 40.764 70.3993 41.296 70.8553 41.704C71.3113 42.104 71.8873 42.304 72.5833 42.304C72.9753 42.304 73.3353 42.236 73.6633 42.1C73.9913 41.956 74.2753 41.748 74.5153 41.476L74.9953 42.028C74.7153 42.364 74.3633 42.62 73.9393 42.796C73.5233 42.972 73.0633 43.06 72.5593 43.06C71.9113 43.06 71.3353 42.924 70.8313 42.652C70.3353 42.372 69.9473 41.988 69.6673 41.5C69.3873 41.012 69.2473 40.46 69.2473 39.844C69.2473 39.228 69.3793 38.676 69.6433 38.188C69.9153 37.7 70.2833 37.32 70.7473 37.048C71.2193 36.776 71.7473 36.64 72.3313 36.64C72.9153 36.64 73.4393 36.776 73.9033 37.048C74.3673 37.32 74.7313 37.7 74.9953 38.188C75.2593 38.668 75.3913 39.22 75.3913 39.844L75.3793 40.108ZM72.3313 37.372C71.7233 37.372 71.2113 37.568 70.7953 37.96C70.3873 38.344 70.1553 38.848 70.0993 39.472H74.5753C74.5193 38.848 74.2833 38.344 73.8673 37.96C73.4593 37.568 72.9473 37.372 72.3313 37.372ZM84.9975 36.64C85.7895 36.64 86.4095 36.868 86.8575 37.324C87.3135 37.78 87.5415 38.452 87.5415 39.34V43H86.6895V39.424C86.6895 38.768 86.5295 38.268 86.2095 37.924C85.8975 37.58 85.4535 37.408 84.8775 37.408C84.2215 37.408 83.7055 37.612 83.3295 38.02C82.9535 38.42 82.7655 38.976 82.7655 39.688V43H81.9135V39.424C81.9135 38.768 81.7535 38.268 81.4335 37.924C81.1215 37.58 80.6735 37.408 80.0895 37.408C79.4415 37.408 78.9255 37.612 78.5415 38.02C78.1655 38.42 77.9775 38.976 77.9775 39.688V43H77.1255V36.688H77.9415V37.84C78.1655 37.456 78.4775 37.16 78.8775 36.952C79.2775 36.744 79.7375 36.64 80.2575 36.64C80.7855 36.64 81.2415 36.752 81.6255 36.976C82.0175 37.2 82.3095 37.532 82.5015 37.972C82.7335 37.556 83.0655 37.232 83.4975 37C83.9375 36.76 84.4375 36.64 84.9975 36.64ZM93.1041 36.64C93.6961 36.64 94.2321 36.776 94.7121 37.048C95.1921 37.312 95.5681 37.688 95.8401 38.176C96.1121 38.664 96.2481 39.22 96.2481 39.844C96.2481 40.476 96.1121 41.036 95.8401 41.524C95.5681 42.012 95.1921 42.392 94.7121 42.664C94.2401 42.928 93.7041 43.06 93.1041 43.06C92.5921 43.06 92.1281 42.956 91.7121 42.748C91.3041 42.532 90.9681 42.22 90.7041 41.812V45.328H89.8521V36.688H90.6681V37.936C90.9241 37.52 91.2601 37.2 91.6761 36.976C92.1001 36.752 92.5761 36.64 93.1041 36.64ZM93.0441 42.304C93.4841 42.304 93.8841 42.204 94.2441 42.004C94.6041 41.796 94.8841 41.504 95.0841 41.128C95.2921 40.752 95.3961 40.324 95.3961 39.844C95.3961 39.364 95.2921 38.94 95.0841 38.572C94.8841 38.196 94.6041 37.904 94.2441 37.696C93.8841 37.488 93.4841 37.384 93.0441 37.384C92.5961 37.384 92.1921 37.488 91.8321 37.696C91.4801 37.904 91.2001 38.196 90.9921 38.572C90.7921 38.94 90.6921 39.364 90.6921 39.844C90.6921 40.324 90.7921 40.752 90.9921 41.128C91.2001 41.504 91.4801 41.796 91.8321 42.004C92.1921 42.204 92.5961 42.304 93.0441 42.304ZM97.9849 34.096H98.8369V43H97.9849V34.096ZM103.416 36.64C104.24 36.64 104.872 36.848 105.312 37.264C105.752 37.672 105.972 38.28 105.972 39.088V43H105.156V42.016C104.964 42.344 104.68 42.6 104.304 42.784C103.936 42.968 103.496 43.06 102.984 43.06C102.28 43.06 101.72 42.892 101.304 42.556C100.888 42.22 100.68 41.776 100.68 41.224C100.68 40.688 100.872 40.256 101.256 39.928C101.648 39.6 102.268 39.436 103.116 39.436H105.12V39.052C105.12 38.508 104.968 38.096 104.664 37.816C104.36 37.528 103.916 37.384 103.332 37.384C102.932 37.384 102.548 37.452 102.18 37.588C101.812 37.716 101.496 37.896 101.232 38.128L100.848 37.492C101.168 37.22 101.552 37.012 102 36.868C102.448 36.716 102.92 36.64 103.416 36.64ZM103.116 42.388C103.596 42.388 104.008 42.28 104.352 42.064C104.696 41.84 104.952 41.52 105.12 41.104V40.072H103.14C102.06 40.072 101.52 40.448 101.52 41.2C101.52 41.568 101.66 41.86 101.94 42.076C102.22 42.284 102.612 42.388 103.116 42.388ZM111.61 42.616C111.45 42.76 111.25 42.872 111.01 42.952C110.778 43.024 110.534 43.06 110.278 43.06C109.686 43.06 109.23 42.9 108.91 42.58C108.59 42.26 108.43 41.808 108.43 41.224V37.408H107.302V36.688H108.43V35.308H109.282V36.688H111.202V37.408H109.282V41.176C109.282 41.552 109.374 41.84 109.558 42.04C109.75 42.232 110.022 42.328 110.374 42.328C110.55 42.328 110.718 42.3 110.878 42.244C111.046 42.188 111.19 42.108 111.31 42.004L111.61 42.616ZM118.434 40.108H113.154C113.202 40.764 113.454 41.296 113.91 41.704C114.366 42.104 114.942 42.304 115.638 42.304C116.03 42.304 116.39 42.236 116.718 42.1C117.046 41.956 117.33 41.748 117.57 41.476L118.05 42.028C117.77 42.364 117.418 42.62 116.994 42.796C116.578 42.972 116.118 43.06 115.614 43.06C114.966 43.06 114.39 42.924 113.886 42.652C113.39 42.372 113.002 41.988 112.722 41.5C112.442 41.012 112.302 40.46 112.302 39.844C112.302 39.228 112.434 38.676 112.698 38.188C112.97 37.7 113.338 37.32 113.802 37.048C114.274 36.776 114.802 36.64 115.386 36.64C115.97 36.64 116.494 36.776 116.958 37.048C117.422 37.32 117.786 37.7 118.05 38.188C118.314 38.668 118.446 39.22 118.446 39.844L118.434 40.108ZM115.386 37.372C114.778 37.372 114.266 37.568 113.85 37.96C113.442 38.344 113.21 38.848 113.154 39.472H117.63C117.574 38.848 117.338 38.344 116.922 37.96C116.514 37.568 116.002 37.372 115.386 37.372ZM123.321 36.688H124.173V43H123.321V36.688ZM123.753 35.308C123.577 35.308 123.429 35.248 123.309 35.128C123.189 35.008 123.129 34.864 123.129 34.696C123.129 34.536 123.189 34.396 123.309 34.276C123.429 34.156 123.577 34.096 123.753 34.096C123.929 34.096 124.077 34.156 124.197 34.276C124.317 34.388 124.377 34.524 124.377 34.684C124.377 34.86 124.317 35.008 124.197 35.128C124.077 35.248 123.929 35.308 123.753 35.308ZM128.235 43.06C127.723 43.06 127.231 42.988 126.759 42.844C126.295 42.692 125.931 42.504 125.667 42.28L126.051 41.608C126.315 41.816 126.647 41.988 127.047 42.124C127.447 42.252 127.863 42.316 128.295 42.316C128.871 42.316 129.295 42.228 129.567 42.052C129.847 41.868 129.987 41.612 129.987 41.284C129.987 41.052 129.911 40.872 129.759 40.744C129.607 40.608 129.415 40.508 129.183 40.444C128.951 40.372 128.643 40.304 128.259 40.24C127.747 40.144 127.335 40.048 127.023 39.952C126.711 39.848 126.443 39.676 126.219 39.436C126.003 39.196 125.895 38.864 125.895 38.44C125.895 37.912 126.115 37.48 126.555 37.144C126.995 36.808 127.607 36.64 128.391 36.64C128.799 36.64 129.207 36.696 129.615 36.808C130.023 36.912 130.359 37.052 130.623 37.228L130.251 37.912C129.731 37.552 129.111 37.372 128.391 37.372C127.847 37.372 127.435 37.468 127.155 37.66C126.883 37.852 126.747 38.104 126.747 38.416C126.747 38.656 126.823 38.848 126.975 38.992C127.135 39.136 127.331 39.244 127.563 39.316C127.795 39.38 128.115 39.448 128.523 39.52C129.027 39.616 129.431 39.712 129.735 39.808C130.039 39.904 130.299 40.068 130.515 40.3C130.731 40.532 130.839 40.852 130.839 41.26C130.839 41.812 130.607 42.252 130.143 42.58C129.687 42.9 129.051 43.06 128.235 43.06ZM137.247 43.06C136.735 43.06 136.243 42.988 135.771 42.844C135.307 42.692 134.943 42.504 134.679 42.28L135.063 41.608C135.327 41.816 135.659 41.988 136.059 42.124C136.459 42.252 136.875 42.316 137.307 42.316C137.883 42.316 138.307 42.228 138.579 42.052C138.859 41.868 138.999 41.612 138.999 41.284C138.999 41.052 138.923 40.872 138.771 40.744C138.619 40.608 138.427 40.508 138.195 40.444C137.963 40.372 137.655 40.304 137.271 40.24C136.759 40.144 136.347 40.048 136.035 39.952C135.723 39.848 135.455 39.676 135.231 39.436C135.015 39.196 134.907 38.864 134.907 38.44C134.907 37.912 135.127 37.48 135.567 37.144C136.007 36.808 136.619 36.64 137.403 36.64C137.811 36.64 138.219 36.696 138.627 36.808C139.035 36.912 139.371 37.052 139.635 37.228L139.263 37.912C138.743 37.552 138.123 37.372 137.403 37.372C136.859 37.372 136.447 37.468 136.167 37.66C135.895 37.852 135.759 38.104 135.759 38.416C135.759 38.656 135.835 38.848 135.987 38.992C136.147 39.136 136.343 39.244 136.575 39.316C136.807 39.38 137.127 39.448 137.535 39.52C138.039 39.616 138.443 39.712 138.747 39.808C139.051 39.904 139.311 40.068 139.527 40.3C139.743 40.532 139.851 40.852 139.851 41.26C139.851 41.812 139.619 42.252 139.155 42.58C138.699 42.9 138.063 43.06 137.247 43.06ZM147.114 36.688V43H146.298V41.848C146.074 42.232 145.766 42.532 145.374 42.748C144.982 42.956 144.534 43.06 144.03 43.06C143.206 43.06 142.554 42.832 142.074 42.376C141.602 41.912 141.366 41.236 141.366 40.348V36.688H142.218V40.264C142.218 40.928 142.382 41.432 142.71 41.776C143.038 42.12 143.506 42.292 144.114 42.292C144.778 42.292 145.302 42.092 145.686 41.692C146.07 41.284 146.262 40.72 146.262 40V36.688H147.114ZM152.753 36.64C153.345 36.64 153.881 36.776 154.361 37.048C154.841 37.312 155.217 37.688 155.489 38.176C155.761 38.664 155.897 39.22 155.897 39.844C155.897 40.468 155.761 41.024 155.489 41.512C155.217 42 154.841 42.38 154.361 42.652C153.881 42.924 153.345 43.06 152.753 43.06C152.225 43.06 151.749 42.948 151.325 42.724C150.909 42.5 150.573 42.176 150.317 41.752V43H149.501V34.096H150.353V37.888C150.617 37.48 150.953 37.172 151.361 36.964C151.777 36.748 152.241 36.64 152.753 36.64ZM152.693 42.304C153.133 42.304 153.533 42.204 153.893 42.004C154.253 41.796 154.533 41.504 154.733 41.128C154.941 40.752 155.045 40.324 155.045 39.844C155.045 39.364 154.941 38.936 154.733 38.56C154.533 38.184 154.253 37.896 153.893 37.696C153.533 37.488 153.133 37.384 152.693 37.384C152.245 37.384 151.841 37.488 151.48 37.696C151.129 37.896 150.849 38.184 150.641 38.56C150.441 38.936 150.341 39.364 150.341 39.844C150.341 40.324 150.441 40.752 150.641 41.128C150.849 41.504 151.129 41.796 151.48 42.004C151.841 42.204 152.245 42.304 152.693 42.304ZM156.697 45.388C156.433 45.388 156.185 45.352 155.953 45.28C155.713 45.216 155.517 45.116 155.365 44.98L155.665 44.332C155.913 44.548 156.241 44.656 156.649 44.656C156.985 44.656 157.241 44.556 157.417 44.356C157.601 44.156 157.693 43.86 157.693 43.468V36.688H158.545V43.468C158.545 44.06 158.385 44.528 158.065 44.872C157.745 45.216 157.289 45.388 156.697 45.388ZM158.125 35.296C157.949 35.296 157.801 35.236 157.681 35.116C157.561 34.996 157.501 34.852 157.501 34.684C157.501 34.524 157.561 34.384 157.681 34.264C157.801 34.144 157.949 34.084 158.125 34.084C158.301 34.084 158.449 34.144 158.569 34.264C158.689 34.376 158.749 34.512 158.749 34.672C158.749 34.848 158.689 34.996 158.569 35.116C158.449 35.236 158.301 35.296 158.125 35.296ZM166.422 40.108H161.142C161.19 40.764 161.442 41.296 161.898 41.704C162.354 42.104 162.93 42.304 163.626 42.304C164.018 42.304 164.378 42.236 164.706 42.1C165.034 41.956 165.318 41.748 165.558 41.476L166.038 42.028C165.758 42.364 165.406 42.62 164.982 42.796C164.566 42.972 164.106 43.06 163.602 43.06C162.954 43.06 162.378 42.924 161.874 42.652C161.378 42.372 160.99 41.988 160.71 41.5C160.43 41.012 160.29 40.46 160.29 39.844C160.29 39.228 160.422 38.676 160.686 38.188C160.958 37.7 161.326 37.32 161.79 37.048C162.262 36.776 162.79 36.64 163.374 36.64C163.958 36.64 164.482 36.776 164.946 37.048C165.41 37.32 165.774 37.7 166.038 38.188C166.302 38.668 166.434 39.22 166.434 39.844L166.422 40.108ZM163.374 37.372C162.766 37.372 162.254 37.568 161.838 37.96C161.43 38.344 161.198 38.848 161.142 39.472H165.618C165.562 38.848 165.326 38.344 164.91 37.96C164.502 37.568 163.99 37.372 163.374 37.372ZM170.784 43.06C170.16 43.06 169.6 42.924 169.104 42.652C168.616 42.38 168.232 42 167.952 41.512C167.672 41.016 167.532 40.46 167.532 39.844C167.532 39.228 167.672 38.676 167.952 38.188C168.232 37.7 168.616 37.32 169.104 37.048C169.6 36.776 170.16 36.64 170.784 36.64C171.328 36.64 171.812 36.748 172.236 36.964C172.668 37.172 173.008 37.48 173.256 37.888L172.62 38.32C172.412 38.008 172.148 37.776 171.828 37.624C171.508 37.464 171.16 37.384 170.784 37.384C170.328 37.384 169.916 37.488 169.548 37.696C169.188 37.896 168.904 38.184 168.696 38.56C168.496 38.936 168.396 39.364 168.396 39.844C168.396 40.332 168.496 40.764 168.696 41.14C168.904 41.508 169.188 41.796 169.548 42.004C169.916 42.204 170.328 42.304 170.784 42.304C171.16 42.304 171.508 42.228 171.828 42.076C172.148 41.924 172.412 41.692 172.62 41.38L173.256 41.812C173.008 42.22 172.668 42.532 172.236 42.748C171.804 42.956 171.32 43.06 170.784 43.06ZM178.325 42.616C178.165 42.76 177.965 42.872 177.725 42.952C177.493 43.024 177.249 43.06 176.993 43.06C176.401 43.06 175.945 42.9 175.625 42.58C175.305 42.26 175.145 41.808 175.145 41.224V37.408H174.017V36.688H175.145V35.308H175.997V36.688H177.917V37.408H175.997V41.176C175.997 41.552 176.089 41.84 176.273 42.04C176.465 42.232 176.737 42.328 177.089 42.328C177.265 42.328 177.433 42.3 177.593 42.244C177.761 42.188 177.905 42.108 178.025 42.004L178.325 42.616ZM186.34 42.616C186.18 42.76 185.98 42.872 185.74 42.952C185.508 43.024 185.264 43.06 185.008 43.06C184.416 43.06 183.96 42.9 183.64 42.58C183.32 42.26 183.16 41.808 183.16 41.224V37.408H182.032V36.688H183.16V35.308H184.012V36.688H185.932V37.408H184.012V41.176C184.012 41.552 184.104 41.84 184.288 42.04C184.48 42.232 184.752 42.328 185.104 42.328C185.28 42.328 185.448 42.3 185.608 42.244C185.776 42.188 185.92 42.108 186.04 42.004L186.34 42.616ZM190.248 43.06C189.64 43.06 189.092 42.924 188.604 42.652C188.116 42.372 187.732 41.988 187.452 41.5C187.172 41.012 187.032 40.46 187.032 39.844C187.032 39.228 187.172 38.676 187.452 38.188C187.732 37.7 188.116 37.32 188.604 37.048C189.092 36.776 189.64 36.64 190.248 36.64C190.856 36.64 191.404 36.776 191.892 37.048C192.38 37.32 192.76 37.7 193.032 38.188C193.312 38.676 193.452 39.228 193.452 39.844C193.452 40.46 193.312 41.012 193.032 41.5C192.76 41.988 192.38 42.372 191.892 42.652C191.404 42.924 190.856 43.06 190.248 43.06ZM190.248 42.304C190.696 42.304 191.096 42.204 191.448 42.004C191.808 41.796 192.088 41.504 192.288 41.128C192.488 40.752 192.588 40.324 192.588 39.844C192.588 39.364 192.488 38.936 192.288 38.56C192.088 38.184 191.808 37.896 191.448 37.696C191.096 37.488 190.696 37.384 190.248 37.384C189.8 37.384 189.396 37.488 189.036 37.696C188.684 37.896 188.404 38.184 188.196 38.56C187.996 38.936 187.896 39.364 187.896 39.844C187.896 40.324 187.996 40.752 188.196 41.128C188.404 41.504 188.684 41.796 189.036 42.004C189.396 42.204 189.8 42.304 190.248 42.304ZM280.026 43.06C279.85 43.06 279.698 42.996 279.57 42.868C279.45 42.74 279.39 42.584 279.39 42.4C279.39 42.216 279.45 42.064 279.57 41.944C279.698 41.816 279.85 41.752 280.026 41.752C280.202 41.752 280.354 41.816 280.482 41.944C280.61 42.064 280.674 42.216 280.674 42.4C280.674 42.584 280.61 42.74 280.482 42.868C280.354 42.996 280.202 43.06 280.026 43.06Z" fill="#6E6B7B"/>
<path d="M201.657 34.6C202.729 34.6 203.569 34.856 204.177 35.368C204.785 35.88 205.089 36.584 205.089 37.48C205.089 38.376 204.785 39.08 204.177 39.592C203.569 40.096 202.729 40.348 201.657 40.348H199.401V43H198.513V34.6H201.657ZM201.633 39.568C202.465 39.568 203.101 39.388 203.541 39.028C203.981 38.66 204.201 38.144 204.201 37.48C204.201 36.8 203.981 36.28 203.541 35.92C203.101 35.552 202.465 35.368 201.633 35.368H199.401V39.568H201.633ZM207.481 37.924C207.681 37.5 207.977 37.18 208.369 36.964C208.769 36.748 209.261 36.64 209.845 36.64V37.468L209.641 37.456C208.977 37.456 208.457 37.66 208.081 38.068C207.705 38.476 207.517 39.048 207.517 39.784V43H206.665V36.688H207.481V37.924ZM211.387 36.688H212.239V43H211.387V36.688ZM211.819 35.308C211.643 35.308 211.495 35.248 211.375 35.128C211.255 35.008 211.195 34.864 211.195 34.696C211.195 34.536 211.255 34.396 211.375 34.276C211.495 34.156 211.643 34.096 211.819 34.096C211.995 34.096 212.143 34.156 212.263 34.276C212.383 34.388 212.443 34.524 212.443 34.684C212.443 34.86 212.383 35.008 212.263 35.128C212.143 35.248 211.995 35.308 211.819 35.308ZM219.914 36.688L217.106 43H216.23L213.434 36.688H214.322L216.686 42.064L219.074 36.688H219.914ZM223.134 36.64C223.958 36.64 224.59 36.848 225.03 37.264C225.47 37.672 225.69 38.28 225.69 39.088V43H224.874V42.016C224.682 42.344 224.398 42.6 224.022 42.784C223.654 42.968 223.214 43.06 222.702 43.06C221.998 43.06 221.438 42.892 221.022 42.556C220.606 42.22 220.398 41.776 220.398 41.224C220.398 40.688 220.59 40.256 220.974 39.928C221.366 39.6 221.986 39.436 222.834 39.436H224.838V39.052C224.838 38.508 224.686 38.096 224.382 37.816C224.078 37.528 223.634 37.384 223.05 37.384C222.65 37.384 222.266 37.452 221.898 37.588C221.53 37.716 221.214 37.896 220.95 38.128L220.566 37.492C220.886 37.22 221.27 37.012 221.718 36.868C222.166 36.716 222.638 36.64 223.134 36.64ZM222.834 42.388C223.314 42.388 223.726 42.28 224.07 42.064C224.414 41.84 224.67 41.52 224.838 41.104V40.072H222.858C221.778 40.072 221.238 40.448 221.238 41.2C221.238 41.568 221.378 41.86 221.658 42.076C221.938 42.284 222.33 42.388 222.834 42.388ZM230.644 43.06C230.02 43.06 229.46 42.924 228.964 42.652C228.476 42.38 228.092 42 227.812 41.512C227.532 41.016 227.392 40.46 227.392 39.844C227.392 39.228 227.532 38.676 227.812 38.188C228.092 37.7 228.476 37.32 228.964 37.048C229.46 36.776 230.02 36.64 230.644 36.64C231.188 36.64 231.672 36.748 232.096 36.964C232.528 37.172 232.868 37.48 233.116 37.888L232.48 38.32C232.272 38.008 232.008 37.776 231.688 37.624C231.368 37.464 231.02 37.384 230.644 37.384C230.188 37.384 229.776 37.488 229.408 37.696C229.048 37.896 228.764 38.184 228.556 38.56C228.356 38.936 228.256 39.364 228.256 39.844C228.256 40.332 228.356 40.764 228.556 41.14C228.764 41.508 229.048 41.796 229.408 42.004C229.776 42.204 230.188 42.304 230.644 42.304C231.02 42.304 231.368 42.228 231.688 42.076C232.008 41.924 232.272 41.692 232.48 41.38L233.116 41.812C232.868 42.22 232.528 42.532 232.096 42.748C231.664 42.956 231.18 43.06 230.644 43.06ZM240 36.688L236.844 43.756C236.588 44.348 236.292 44.768 235.956 45.016C235.62 45.264 235.216 45.388 234.744 45.388C234.44 45.388 234.156 45.34 233.892 45.244C233.628 45.148 233.4 45.004 233.208 44.812L233.604 44.176C233.924 44.496 234.308 44.656 234.756 44.656C235.044 44.656 235.288 44.576 235.488 44.416C235.696 44.256 235.888 43.984 236.064 43.6L236.34 42.988L233.52 36.688H234.408L236.784 42.052L239.16 36.688H240ZM247.664 34.6C248.736 34.6 249.576 34.856 250.184 35.368C250.792 35.88 251.096 36.584 251.096 37.48C251.096 38.376 250.792 39.08 250.184 39.592C249.576 40.096 248.736 40.348 247.664 40.348H245.408V43H244.52V34.6H247.664ZM247.64 39.568C248.472 39.568 249.108 39.388 249.548 39.028C249.988 38.66 250.208 38.144 250.208 37.48C250.208 36.8 249.988 36.28 249.548 35.92C249.108 35.552 248.472 35.368 247.64 35.368H245.408V39.568H247.64ZM255.381 43.06C254.773 43.06 254.225 42.924 253.737 42.652C253.249 42.372 252.865 41.988 252.585 41.5C252.305 41.012 252.165 40.46 252.165 39.844C252.165 39.228 252.305 38.676 252.585 38.188C252.865 37.7 253.249 37.32 253.737 37.048C254.225 36.776 254.773 36.64 255.381 36.64C255.989 36.64 256.537 36.776 257.025 37.048C257.513 37.32 257.893 37.7 258.165 38.188C258.445 38.676 258.585 39.228 258.585 39.844C258.585 40.46 258.445 41.012 258.165 41.5C257.893 41.988 257.513 42.372 257.025 42.652C256.537 42.924 255.989 43.06 255.381 43.06ZM255.381 42.304C255.829 42.304 256.229 42.204 256.581 42.004C256.941 41.796 257.221 41.504 257.421 41.128C257.621 40.752 257.721 40.324 257.721 39.844C257.721 39.364 257.621 38.936 257.421 38.56C257.221 38.184 256.941 37.896 256.581 37.696C256.229 37.488 255.829 37.384 255.381 37.384C254.933 37.384 254.529 37.488 254.169 37.696C253.817 37.896 253.537 38.184 253.329 38.56C253.129 38.936 253.029 39.364 253.029 39.844C253.029 40.324 253.129 40.752 253.329 41.128C253.537 41.504 253.817 41.796 254.169 42.004C254.529 42.204 254.933 42.304 255.381 42.304ZM260.325 34.096H261.177V43H260.325V34.096ZM263.547 36.688H264.399V43H263.547V36.688ZM263.979 35.308C263.803 35.308 263.655 35.248 263.535 35.128C263.415 35.008 263.355 34.864 263.355 34.696C263.355 34.536 263.415 34.396 263.535 34.276C263.655 34.156 263.803 34.096 263.979 34.096C264.155 34.096 264.303 34.156 264.423 34.276C264.543 34.388 264.603 34.524 264.603 34.684C264.603 34.86 264.543 35.008 264.423 35.128C264.303 35.248 264.155 35.308 263.979 35.308ZM269.386 43.06C268.762 43.06 268.202 42.924 267.706 42.652C267.218 42.38 266.834 42 266.554 41.512C266.274 41.016 266.134 40.46 266.134 39.844C266.134 39.228 266.274 38.676 266.554 38.188C266.834 37.7 267.218 37.32 267.706 37.048C268.202 36.776 268.762 36.64 269.386 36.64C269.93 36.64 270.414 36.748 270.838 36.964C271.27 37.172 271.61 37.48 271.858 37.888L271.222 38.32C271.014 38.008 270.75 37.776 270.43 37.624C270.11 37.464 269.762 37.384 269.386 37.384C268.93 37.384 268.518 37.488 268.15 37.696C267.79 37.896 267.506 38.184 267.298 38.56C267.098 38.936 266.998 39.364 266.998 39.844C266.998 40.332 267.098 40.764 267.298 41.14C267.506 41.508 267.79 41.796 268.15 42.004C268.518 42.204 268.93 42.304 269.386 42.304C269.762 42.304 270.11 42.228 270.43 42.076C270.75 41.924 271.014 41.692 271.222 41.38L271.858 41.812C271.61 42.22 271.27 42.532 270.838 42.748C270.406 42.956 269.922 43.06 269.386 43.06ZM278.742 36.688L275.586 43.756C275.33 44.348 275.034 44.768 274.698 45.016C274.362 45.264 273.958 45.388 273.486 45.388C273.182 45.388 272.898 45.34 272.634 45.244C272.37 45.148 272.142 45.004 271.95 44.812L272.346 44.176C272.666 44.496 273.05 44.656 273.498 44.656C273.786 44.656 274.03 44.576 274.23 44.416C274.438 44.256 274.63 43.984 274.806 43.6L275.082 42.988L272.262 36.688H273.15L275.526 42.052L277.902 36.688H278.742Z" fill="#3A6DB3"/>
<path fill-rule="evenodd" clip-rule="evenodd" d="M80.75 0.75H73.25C70.775 0.75 68.75 2.775 68.75 5.25V12.75C68.75 15.225 70.775 17.25 73.25 17.25H80.75C83.225 17.25 85.25 15.225 85.25 12.75V5.25C85.25 2.775 83.225 0.75 80.75 0.75ZM83.75 12.75C83.75 14.4 82.4 15.75 80.75 15.75H73.25C71.6 15.75 70.25 14.4 70.25 12.75V5.25C70.25 3.6 71.6 2.25 73.25 2.25H80.75C82.4 2.25 83.75 3.6 83.75 5.25V12.75ZM76.475 5.25C76.85 5.175 77.225 5.175 77.6 5.25C79.25 5.475 80.525 6.75 80.675 8.4C80.825 9.375 80.6 10.35 80 11.175C79.4 12 78.5 12.525 77.525 12.675C77.375 12.75 77.15 12.75 77 12.75C75.2 12.75 73.625 11.4 73.325 9.525C73.025 7.5 74.45 5.55 76.475 5.25ZM78.875 10.275C78.5 10.725 77.975 11.1 77.375 11.175C76.175 11.325 74.975 10.5 74.825 9.3C74.6 8.1 75.5 6.9 76.7 6.75H77H77.3C78.275 6.9 79.025 7.65 79.175 8.625C79.325 9.225 79.175 9.825 78.875 10.275ZM81.8279 4.67353C81.8129 4.63713 81.8 4.60607 81.8 4.575C81.8 4.5 81.725 4.425 81.65 4.35C81.35 4.05 80.9 4.05 80.6 4.35C80.525 4.425 80.45 4.5 80.45 4.575C80.375 4.65 80.375 4.8 80.375 4.875C80.375 5.025 80.45 5.25 80.6 5.4C80.75 5.55 80.975 5.625 81.125 5.625C81.275 5.625 81.5 5.55 81.65 5.4C81.8 5.25 81.875 5.1 81.875 4.875C81.875 4.78713 81.8493 4.725 81.8279 4.67353Z" fill="black"/>
<mask id="mask0_19_1780" style="mask-type:luminance" maskUnits="userSpaceOnUse" x="68" y="0" width="18" height="18">
<path fill-rule="evenodd" clip-rule="evenodd" d="M80.75 0.75H73.25C70.775 0.75 68.75 2.775 68.75 5.25V12.75C68.75 15.225 70.775 17.25 73.25 17.25H80.75C83.225 17.25 85.25 15.225 85.25 12.75V5.25C85.25 2.775 83.225 0.75 80.75 0.75ZM83.75 12.75C83.75 14.4 82.4 15.75 80.75 15.75H73.25C71.6 15.75 70.25 14.4 70.25 12.75V5.25C70.25 3.6 71.6 2.25 73.25 2.25H80.75C82.4 2.25 83.75 3.6 83.75 5.25V12.75ZM76.475 5.25C76.85 5.175 77.225 5.175 77.6 5.25C79.25 5.475 80.525 6.75 80.675 8.4C80.825 9.375 80.6 10.35 80 11.175C79.4 12 78.5 12.525 77.525 12.675C77.375 12.75 77.15 12.75 77 12.75C75.2 12.75 73.625 11.4 73.325 9.525C73.025 7.5 74.45 5.55 76.475 5.25ZM78.875 10.275C78.5 10.725 77.975 11.1 77.375 11.175C76.175 11.325 74.975 10.5 74.825 9.3C74.6 8.1 75.5 6.9 76.7 6.75H77H77.3C78.275 6.9 79.025 7.65 79.175 8.625C79.325 9.225 79.175 9.825 78.875 10.275ZM81.8279 4.67353C81.8129 4.63713 81.8 4.60607 81.8 4.575C81.8 4.5 81.725 4.425 81.65 4.35C81.35 4.05 80.9 4.05 80.6 4.35C80.525 4.425 80.45 4.5 80.45 4.575C80.375 4.65 80.375 4.8 80.375 4.875C80.375 5.025 80.45 5.25 80.6 5.4C80.75 5.55 80.975 5.625 81.125 5.625C81.275 5.625 81.5 5.55 81.65 5.4C81.8 5.25 81.875 5.1 81.875 4.875C81.875 4.78713 81.8493 4.725 81.8279 4.67353Z" fill="white"/>
</mask>
<g mask="url(#mask0_19_1780)">
<rect x="68" width="18" height="18" fill="#6E6B7B"/>
</g>
<path fill-rule="evenodd" clip-rule="evenodd" d="M50.8579 1.64161C51.0825 1.49076 51.4567 1.49076 51.6812 1.64161C51.9057 1.79246 52.0554 2.09415 51.9805 2.39584C51.756 3.45177 51.2321 4.43227 50.4837 5.26193V5.63904C50.4837 9.78733 48.6876 13.2568 45.4695 15.067C43.823 16.0475 42.0269 16.5 40.1559 16.5C38.2849 16.5 36.2643 15.972 34.3933 14.9161C34.0939 14.7653 33.9442 14.3881 34.0191 14.0865C34.0939 13.7848 34.4681 13.5585 34.7675 13.5585C36.0397 13.5585 37.312 13.3322 38.4346 12.8043C35.6655 11.0695 34.9171 8.65598 34.8423 6.77039C34.7675 4.58312 35.5159 2.77296 35.5907 2.69754C35.6655 2.47127 35.8901 2.245 36.1894 2.245C36.4888 2.245 36.7133 2.32042 36.863 2.54669C38.1352 4.35685 40.0811 5.4882 42.2514 5.63904C42.2514 4.43227 42.7753 3.30092 43.7482 2.54669C45.3198 1.11365 47.6398 1.18907 49.1366 2.54669C49.7353 2.32042 50.3341 2.01873 50.8579 1.64161ZM48.9121 5.1865C48.9121 4.96024 48.987 4.65854 49.1366 4.5077C49.2115 4.39456 49.2863 4.30028 49.3612 4.206C49.436 4.11172 49.5108 4.01744 49.5857 3.90431C49.5108 3.94202 49.4173 3.96088 49.3237 3.97973C49.2302 3.99859 49.1366 4.01744 49.0618 4.05516C48.8373 4.13058 48.5379 4.05516 48.3134 3.82889C47.4153 2.77296 45.694 2.62211 44.6463 3.60262C44.0476 4.13058 43.7482 4.88481 43.7482 5.63904V6.39328C43.7482 6.77039 43.374 7.14751 42.9998 7.14751C40.5301 7.22293 38.2101 6.24243 36.5636 4.58312C36.1146 6.4687 35.9649 10.1644 40.3056 12.1254C40.5301 12.2009 40.7546 12.4271 40.7546 12.7288C40.7546 13.0305 40.6798 13.2568 40.3804 13.4076C39.5572 14.011 38.6591 14.3881 37.6862 14.6898C40.1559 15.2932 42.6256 14.9915 44.7211 13.7848C47.4153 12.2009 48.987 9.25936 48.987 5.63904C48.987 5.4882 48.987 5.33735 48.9121 5.1865Z" fill="black"/>
<mask id="mask1_19_1780" style="mask-type:luminance" maskUnits="userSpaceOnUse" x="34" y="1" width="18" height="16">
<path fill-rule="evenodd" clip-rule="evenodd" d="M50.8579 1.64161C51.0825 1.49076 51.4567 1.49076 51.6812 1.64161C51.9057 1.79246 52.0554 2.09415 51.9805 2.39584C51.756 3.45177 51.2321 4.43227 50.4837 5.26193V5.63904C50.4837 9.78733 48.6876 13.2568 45.4695 15.067C43.823 16.0475 42.0269 16.5 40.1559 16.5C38.2849 16.5 36.2643 15.972 34.3933 14.9161C34.0939 14.7653 33.9442 14.3881 34.0191 14.0865C34.0939 13.7848 34.4681 13.5585 34.7675 13.5585C36.0397 13.5585 37.312 13.3322 38.4346 12.8043C35.6655 11.0695 34.9171 8.65598 34.8423 6.77039C34.7675 4.58312 35.5159 2.77296 35.5907 2.69754C35.6655 2.47127 35.8901 2.245 36.1894 2.245C36.4888 2.245 36.7133 2.32042 36.863 2.54669C38.1352 4.35685 40.0811 5.4882 42.2514 5.63904C42.2514 4.43227 42.7753 3.30092 43.7482 2.54669C45.3198 1.11365 47.6398 1.18907 49.1366 2.54669C49.7353 2.32042 50.3341 2.01873 50.8579 1.64161ZM48.9121 5.1865C48.9121 4.96024 48.987 4.65854 49.1366 4.5077C49.2115 4.39456 49.2863 4.30028 49.3612 4.206C49.436 4.11172 49.5108 4.01744 49.5857 3.90431C49.5108 3.94202 49.4173 3.96088 49.3237 3.97973C49.2302 3.99859 49.1366 4.01744 49.0618 4.05516C48.8373 4.13058 48.5379 4.05516 48.3134 3.82889C47.4153 2.77296 45.694 2.62211 44.6463 3.60262C44.0476 4.13058 43.7482 4.88481 43.7482 5.63904V6.39328C43.7482 6.77039 43.374 7.14751 42.9998 7.14751C40.5301 7.22293 38.2101 6.24243 36.5636 4.58312C36.1146 6.4687 35.9649 10.1644 40.3056 12.1254C40.5301 12.2009 40.7546 12.4271 40.7546 12.7288C40.7546 13.0305 40.6798 13.2568 40.3804 13.4076C39.5572 14.011 38.6591 14.3881 37.6862 14.6898C40.1559 15.2932 42.6256 14.9915 44.7211 13.7848C47.4153 12.2009 48.987 9.25936 48.987 5.63904C48.987 5.4882 48.987 5.33735 48.9121 5.1865Z" fill="white"/>
</mask>
<g mask="url(#mask1_19_1780)">
<rect x="34" width="18" height="18" fill="#6E6B7B"/>
</g>
<path fill-rule="evenodd" clip-rule="evenodd" d="M14.2207 4.5C14.2207 4.95 13.9216 5.25 13.4729 5.25H11.2297V6.75H13.4729C13.6972 6.75 13.9216 6.75 14.0711 6.975C14.2207 7.2 14.2954 7.425 14.2207 7.65L13.4729 10.65C13.3981 11.025 13.0991 11.25 12.7252 11.25H11.2297V16.5C11.2297 16.95 10.9306 17.25 10.4819 17.25H7.49097C7.04233 17.25 6.74323 16.95 6.74323 16.5V11.25H5.24774C4.7991 11.25 4.5 10.95 4.5 10.5V7.5C4.5 7.05 4.7991 6.75 5.24774 6.75H6.74323V5.25C6.74323 2.775 8.76214 0.75 11.2297 0.75H13.4729C13.9216 0.75 14.2207 1.05 14.2207 1.5V4.5ZM12.5009 8.25H10.4819C10.0333 8.25 9.7342 7.95 9.7342 7.5V5.25C9.7342 4.425 10.4072 3.75 11.2297 3.75H12.7252V2.25H11.2297C9.58466 2.25 8.23872 3.6 8.23872 5.25V7.5C8.23872 7.95 7.93962 8.25 7.49097 8.25H5.99549V9.75H7.49097C7.93962 9.75 8.23872 10.05 8.23872 10.5V15.75H9.7342V10.5C9.7342 10.05 10.0333 9.75 10.4819 9.75H12.127L12.5009 8.25Z" fill="black"/>
<mask id="mask2_19_1780" style="mask-type:luminance" maskUnits="userSpaceOnUse" x="4" y="0" width="11" height="18">
<path fill-rule="evenodd" clip-rule="evenodd" d="M14.2207 4.5C14.2207 4.95 13.9216 5.25 13.4729 5.25H11.2297V6.75H13.4729C13.6972 6.75 13.9216 6.75 14.0711 6.975C14.2207 7.2 14.2954 7.425 14.2207 7.65L13.4729 10.65C13.3981 11.025 13.0991 11.25 12.7252 11.25H11.2297V16.5C11.2297 16.95 10.9306 17.25 10.4819 17.25H7.49097C7.04233 17.25 6.74323 16.95 6.74323 16.5V11.25H5.24774C4.7991 11.25 4.5 10.95 4.5 10.5V7.5C4.5 7.05 4.7991 6.75 5.24774 6.75H6.74323V5.25C6.74323 2.775 8.76214 0.75 11.2297 0.75H13.4729C13.9216 0.75 14.2207 1.05 14.2207 1.5V4.5ZM12.5009 8.25H10.4819C10.0333 8.25 9.7342 7.95 9.7342 7.5V5.25C9.7342 4.425 10.4072 3.75 11.2297 3.75H12.7252V2.25H11.2297C9.58466 2.25 8.23872 3.6 8.23872 5.25V7.5C8.23872 7.95 7.93962 8.25 7.49097 8.25H5.99549V9.75H7.49097C7.93962 9.75 8.23872 10.05 8.23872 10.5V15.75H9.7342V10.5C9.7342 10.05 10.0333 9.75 10.4819 9.75H12.127L12.5009 8.25Z" fill="white"/>
</mask>
<g mask="url(#mask2_19_1780)">
<rect width="18" height="18" fill="#6E6B7B"/>
</g>
</g>
<defs>
<clipPath id="clip0_19_1780">
<rect width="283" height="46" fill="white"/>
</clipPath>
</defs>
</svg>
