<svg width="242" height="64" viewBox="0 0 242 64" fill="none" xmlns="http://www.w3.org/2000/svg">
<g clip-path="url(#clip0_19_1404)">
<path d="M217.805 58.1947L215.805 56.1947C215.613 56.003 215.325 55.9465 215.075 56.052C210.388 58.0307 210 60.6253 210 63.3333C210 63.7015 210.299 64 210.667 64C213.375 64 215.969 63.612 217.947 58.9253C218.053 58.6757 217.997 58.3868 217.805 58.1947Z" fill="#FFC107"/>
<path d="M221.805 56.8613L217.139 52.1946C217.003 52.055 216.812 51.9836 216.619 51.9999C216.426 52.0142 216.249 52.1116 216.133 52.2666L214.133 54.9333C213.998 55.1143 213.963 55.3517 214.041 55.564C214.385 56.4019 214.89 57.1636 215.529 57.8053L216.196 58.472C216.838 59.1109 217.599 59.6166 218.437 59.96C218.511 59.9867 218.588 60.0002 218.667 60C218.811 60 218.951 59.9532 219.067 59.8667L221.733 57.8667C222.028 57.6457 222.087 57.2279 221.866 56.9333C221.848 56.9084 221.827 56.8847 221.805 56.8627V56.8613Z" fill="#E53935"/>
<path d="M229.632 52.7373C229.407 52.6246 229.137 52.6489 228.935 52.8L223.602 56.8C223.434 56.9259 223.335 57.1235 223.335 57.3333V62C223.335 62.3682 223.633 62.6667 224.002 62.6667C224.146 62.6667 224.286 62.6199 224.402 62.5334L229.735 58.5334C229.903 58.4075 230.002 58.2099 230.002 58.0001V53.3334C230.001 53.0808 229.858 52.85 229.632 52.7373Z" fill="#F44336"/>
<path d="M221.263 44.368C221.15 44.1424 220.919 44 220.667 44H216C215.79 44 215.593 44.0988 215.467 44.2667L211.467 49.6C211.246 49.8946 211.306 50.3124 211.6 50.5333C211.716 50.6199 211.856 50.6666 212 50.6666H216.667C216.877 50.6666 217.074 50.5678 217.2 50.3999L221.2 45.0666C221.352 44.8645 221.376 44.5939 221.263 44.368Z" fill="#F44336"/>
<path d="M241.333 32C234.585 32 228.4 33.3947 215.467 50.9333C215.301 51.1576 215.293 51.4614 215.445 51.6946C216.261 52.919 217.182 54.0696 218.197 55.1333L218.864 55.8C219.928 56.8159 221.078 57.7368 222.303 58.552C222.536 58.7069 222.841 58.6994 223.067 58.5333C240.605 45.6 242 39.4147 242 32.6667C242 32.2985 241.702 32 241.333 32Z" fill="#CFD8DC"/>
<path d="M232 44.6667C233.473 44.6667 234.667 43.4728 234.667 42C234.667 40.5272 233.473 39.3333 232 39.3333C230.527 39.3333 229.333 40.5272 229.333 42C229.333 43.4728 230.527 44.6667 232 44.6667Z" fill="#FAFAFA"/>
<path d="M232 45.3333C230.159 45.3333 228.667 43.8409 228.667 42C228.667 40.1591 230.159 38.6667 232 38.6667C233.841 38.6667 235.333 40.1591 235.333 42C235.333 43.8409 233.841 45.3333 232 45.3333ZM232 40C230.895 40 230 40.8954 230 42C230 43.1046 230.895 44 232 44C233.105 44 234 43.1046 234 42C234 40.8954 233.105 40 232 40Z" fill="#F44336"/>
</g>
<path d="M16.72 46C15.0667 46 13.6133 45.6267 12.36 44.88C11.1067 44.1067 10.1333 43.0933 9.44 41.84C8.74667 40.56 8.4 39.16 8.4 37.64V23.04H0.6V18H21.92V23.04H14.12V38.32C14.12 39.04 14.3733 39.6667 14.88 40.2C15.3867 40.7067 16 40.96 16.72 40.96H18.72V46H16.72ZM36.7791 46.48C34.5124 46.48 32.4991 46.0133 30.7391 45.08C29.0057 44.1467 27.6324 42.8267 26.6191 41.12C25.6324 39.3867 25.1391 37.3333 25.1391 34.96V18H30.8591V35.32C30.8591 36.44 31.0991 37.4667 31.5791 38.4C32.0591 39.3067 32.7391 40.04 33.6191 40.6C34.5257 41.16 35.5791 41.44 36.7791 41.44C38.0057 41.44 39.0591 41.16 39.9391 40.6C40.8191 40.04 41.4991 39.3067 41.9791 38.4C42.4591 37.4667 42.6991 36.44 42.6991 35.32V18H48.4191V34.96C48.4191 37.3333 47.9124 39.3867 46.8991 41.12C45.9124 42.8267 44.5391 44.1467 42.7791 45.08C41.0457 46.0133 39.0457 46.48 36.7791 46.48ZM53.8156 46V18H66.3356C68.1756 18 69.8423 18.4133 71.3356 19.24C72.8556 20.04 74.0556 21.16 74.9356 22.6C75.8423 24.04 76.2956 25.72 76.2956 27.64C76.2956 29.5067 75.8556 31.16 74.9756 32.6C74.0956 34.0133 72.9356 35.1333 71.4956 35.96L74.0556 40.44C74.1623 40.6 74.2956 40.7333 74.4556 40.84C74.6156 40.92 74.8023 40.96 75.0156 40.96H77.7356V46H74.1356C73.0156 46 71.989 45.72 71.0556 45.16C70.149 44.6 69.429 43.8667 68.8956 42.96L65.7356 37.28C65.4956 37.28 65.2423 37.28 64.9756 37.28C64.7356 37.28 64.4956 37.28 64.2556 37.28H59.5356V46H53.8156ZM59.5356 32.24H65.6556C66.5623 32.24 67.389 32.0667 68.1356 31.72C68.8823 31.3467 69.469 30.8133 69.8956 30.12C70.349 29.4267 70.5756 28.6 70.5756 27.64C70.5756 26.68 70.349 25.8533 69.8956 25.16C69.4423 24.4667 68.8423 23.9467 68.0956 23.6C67.3756 23.2267 66.5623 23.04 65.6556 23.04H59.5356V32.24ZM81.1203 46V18H96.8403C98.1736 18 99.3736 18.3067 100.44 18.92C101.534 19.5067 102.4 20.3333 103.04 21.4C103.707 22.4667 104.04 23.7333 104.04 25.2C104.04 26.1333 103.854 27.0267 103.48 27.88C103.107 28.7067 102.6 29.4267 101.96 30.04C101.32 30.6533 100.574 31.1333 99.7203 31.48C100.707 31.8 101.574 32.32 102.32 33.04C103.094 33.7333 103.694 34.56 104.12 35.52C104.574 36.4533 104.8 37.4667 104.8 38.56C104.8 40.0533 104.454 41.36 103.76 42.48C103.094 43.6 102.2 44.4667 101.08 45.08C99.9603 45.6933 98.707 46 97.3203 46H81.1203ZM86.8403 40.96H95.6803C96.3203 40.96 96.8936 40.8133 97.4003 40.52C97.907 40.2 98.307 39.7867 98.6003 39.28C98.9203 38.7467 99.0803 38.1733 99.0803 37.56C99.0803 36.92 98.9203 36.3467 98.6003 35.84C98.307 35.3333 97.907 34.9333 97.4003 34.64C96.8936 34.32 96.3203 34.16 95.6803 34.16H86.8403V40.96ZM86.8403 29.36H95.1603C95.747 29.36 96.2803 29.2267 96.7603 28.96C97.2403 28.6667 97.6136 28.28 97.8803 27.8C98.1736 27.32 98.3203 26.7867 98.3203 26.2C98.3203 25.6133 98.1736 25.08 97.8803 24.6C97.6136 24.12 97.2403 23.7467 96.7603 23.48C96.2803 23.1867 95.747 23.04 95.1603 23.04H86.8403V29.36ZM122.286 46.52C120.046 46.52 118.02 46.1467 116.206 45.4C114.42 44.6267 112.886 43.5733 111.606 42.24C110.326 40.9067 109.34 39.36 108.646 37.6C107.953 35.84 107.606 33.96 107.606 31.96C107.606 29.96 107.953 28.0933 108.646 26.36C109.34 24.6 110.326 23.0533 111.606 21.72C112.886 20.3867 114.42 19.3467 116.206 18.6C118.02 17.8533 120.046 17.48 122.286 17.48C124.526 17.48 126.54 17.8533 128.326 18.6C130.14 19.3467 131.686 20.3867 132.966 21.72C134.246 23.0533 135.233 24.6 135.926 26.36C136.62 28.0933 136.966 29.96 136.966 31.96C136.966 33.96 136.62 35.84 135.926 37.6C135.233 39.36 134.246 40.9067 132.966 42.24C131.686 43.5733 130.14 44.6267 128.326 45.4C126.54 46.1467 124.526 46.52 122.286 46.52ZM122.286 41.44C123.566 41.44 124.753 41.2133 125.846 40.76C126.94 40.28 127.886 39.6133 128.686 38.76C129.513 37.88 130.14 36.8667 130.566 35.72C131.02 34.5733 131.246 33.32 131.246 31.96C131.246 30.6 131.02 29.3467 130.566 28.2C130.14 27.0533 129.513 26.0533 128.686 25.2C127.886 24.3467 126.94 23.6933 125.846 23.24C124.753 22.76 123.566 22.52 122.286 22.52C121.006 22.52 119.82 22.76 118.726 23.24C117.633 23.6933 116.673 24.3467 115.846 25.2C115.046 26.0533 114.42 27.0533 113.966 28.2C113.54 29.3467 113.326 30.6 113.326 31.96C113.326 33.32 113.54 34.5733 113.966 35.72C114.42 36.8667 115.046 37.88 115.846 38.76C116.673 39.6133 117.633 40.28 118.726 40.76C119.82 41.2133 121.006 41.44 122.286 41.44ZM148.804 46C147.151 46 145.697 45.6267 144.444 44.88C143.191 44.1067 142.217 43.0933 141.524 41.84C140.831 40.56 140.484 39.16 140.484 37.64V18H146.204V38.32C146.204 39.04 146.457 39.6667 146.964 40.2C147.471 40.7067 148.084 40.96 148.804 40.96H156.204V46H148.804ZM152.383 46L161.503 21.12C161.956 19.92 162.663 19.0267 163.623 18.44C164.609 17.8267 165.716 17.52 166.943 17.52C168.169 17.52 169.276 17.8133 170.263 18.4C171.249 18.96 171.956 19.8533 172.383 21.08L181.543 46H175.263L173.383 40.36H160.343L158.383 46H152.383ZM162.063 35.32H171.703L167.663 23.04C167.609 22.8533 167.516 22.72 167.383 22.64C167.276 22.56 167.143 22.52 166.983 22.52C166.823 22.52 166.689 22.5733 166.583 22.68C166.476 22.76 166.396 22.88 166.343 23.04L162.063 35.32ZM183.738 46V18H199.458C200.791 18 201.991 18.3067 203.058 18.92C204.151 19.5067 205.018 20.3333 205.658 21.4C206.324 22.4667 206.658 23.7333 206.658 25.2C206.658 26.1333 206.471 27.0267 206.098 27.88C205.724 28.7067 205.218 29.4267 204.578 30.04C203.938 30.6533 203.191 31.1333 202.338 31.48C203.324 31.8 204.191 32.32 204.938 33.04C205.711 33.7333 206.311 34.56 206.738 35.52C207.191 36.4533 207.418 37.4667 207.418 38.56C207.418 40.0533 207.071 41.36 206.378 42.48C205.711 43.6 204.818 44.4667 203.698 45.08C202.578 45.6933 201.324 46 199.938 46H183.738ZM189.458 40.96H198.298C198.938 40.96 199.511 40.8133 200.018 40.52C200.524 40.2 200.924 39.7867 201.218 39.28C201.538 38.7467 201.698 38.1733 201.698 37.56C201.698 36.92 201.538 36.3467 201.218 35.84C200.924 35.3333 200.524 34.9333 200.018 34.64C199.511 34.32 198.938 34.16 198.298 34.16H189.458V40.96ZM189.458 29.36H197.778C198.364 29.36 198.898 29.2267 199.378 28.96C199.858 28.6667 200.231 28.28 200.498 27.8C200.791 27.32 200.938 26.7867 200.938 26.2C200.938 25.6133 200.791 25.08 200.498 24.6C200.231 24.12 199.858 23.7467 199.378 23.48C198.898 23.1867 198.364 23.04 197.778 23.04H189.458V29.36Z" fill="#223E91"/>
<defs>
<clipPath id="clip0_19_1404">
<rect width="32" height="32" fill="white" transform="translate(210 32)"/>
</clipPath>
</defs>
</svg>
