<svg width="1098" height="365" viewBox="0 0 1098 365" fill="none" xmlns="http://www.w3.org/2000/svg">
<rect width="1098" height="365" rx="10" fill="url(#paint0_linear_130_646)"/>
<path d="M380.08 185C377.6 185 375.42 184.44 373.54 183.32C371.66 182.16 370.2 180.64 369.16 178.76C368.12 176.84 367.6 174.74 367.6 172.46V150.56H355.9V143H387.88V150.56H376.18V173.48C376.18 174.56 376.56 175.5 377.32 176.3C378.08 177.06 379 177.44 380.08 177.44H383.08V185H380.08ZM410.169 185.72C406.769 185.72 403.749 185.02 401.109 183.62C398.509 182.22 396.449 180.24 394.929 177.68C393.449 175.08 392.709 172 392.709 168.44V143H401.289V168.98C401.289 170.66 401.649 172.2 402.369 173.6C403.089 174.96 404.109 176.06 405.429 176.9C406.789 177.74 408.369 178.16 410.169 178.16C412.009 178.16 413.589 177.74 414.909 176.9C416.229 176.06 417.249 174.96 417.969 173.6C418.689 172.2 419.049 170.66 419.049 168.98V143H427.629V168.44C427.629 172 426.869 175.08 425.349 177.68C423.869 180.24 421.809 182.22 419.169 183.62C416.569 185.02 413.569 185.72 410.169 185.72ZM435.723 185V143H454.503C457.263 143 459.763 143.62 462.003 144.86C464.283 146.06 466.083 147.74 467.403 149.9C468.763 152.06 469.443 154.58 469.443 157.46C469.443 160.26 468.783 162.74 467.463 164.9C466.143 167.02 464.403 168.7 462.243 169.94L466.083 176.66C466.243 176.9 466.443 177.1 466.683 177.26C466.923 177.38 467.203 177.44 467.523 177.44H471.603V185H466.203C464.523 185 462.983 184.58 461.583 183.74C460.223 182.9 459.143 181.8 458.343 180.44L453.603 171.92C453.243 171.92 452.863 171.92 452.463 171.92C452.103 171.92 451.743 171.92 451.383 171.92H444.303V185H435.723ZM444.303 164.36H453.483C454.843 164.36 456.083 164.1 457.203 163.58C458.323 163.02 459.203 162.22 459.843 161.18C460.523 160.14 460.863 158.9 460.863 157.46C460.863 156.02 460.523 154.78 459.843 153.74C459.163 152.7 458.263 151.92 457.143 151.4C456.063 150.84 454.843 150.56 453.483 150.56H444.303V164.36ZM476.68 185V143H500.26C502.26 143 504.06 143.46 505.66 144.38C507.3 145.26 508.6 146.5 509.56 148.1C510.56 149.7 511.06 151.6 511.06 153.8C511.06 155.2 510.78 156.54 510.22 157.82C509.66 159.06 508.9 160.14 507.94 161.06C506.98 161.98 505.86 162.7 504.58 163.22C506.06 163.7 507.36 164.48 508.48 165.56C509.64 166.6 510.54 167.84 511.18 169.28C511.86 170.68 512.2 172.2 512.2 173.84C512.2 176.08 511.68 178.04 510.64 179.72C509.64 181.4 508.3 182.7 506.62 183.62C504.94 184.54 503.06 185 500.98 185H476.68ZM485.26 177.44H498.52C499.48 177.44 500.34 177.22 501.1 176.78C501.86 176.3 502.46 175.68 502.9 174.92C503.38 174.12 503.62 173.26 503.62 172.34C503.62 171.38 503.38 170.52 502.9 169.76C502.46 169 501.86 168.4 501.1 167.96C500.34 167.48 499.48 167.24 498.52 167.24H485.26V177.44ZM485.26 160.04H497.74C498.62 160.04 499.42 159.84 500.14 159.44C500.86 159 501.42 158.42 501.82 157.7C502.26 156.98 502.48 156.18 502.48 155.3C502.48 154.42 502.26 153.62 501.82 152.9C501.42 152.18 500.86 151.62 500.14 151.22C499.42 150.78 498.62 150.56 497.74 150.56H485.26V160.04ZM538.429 185.78C535.069 185.78 532.029 185.22 529.309 184.1C526.629 182.94 524.329 181.36 522.409 179.36C520.489 177.36 519.009 175.04 517.969 172.4C516.929 169.76 516.409 166.94 516.409 163.94C516.409 160.94 516.929 158.14 517.969 155.54C519.009 152.9 520.489 150.58 522.409 148.58C524.329 146.58 526.629 145.02 529.309 143.9C532.029 142.78 535.069 142.22 538.429 142.22C541.789 142.22 544.809 142.78 547.489 143.9C550.209 145.02 552.529 146.58 554.449 148.58C556.369 150.58 557.849 152.9 558.889 155.54C559.929 158.14 560.449 160.94 560.449 163.94C560.449 166.94 559.929 169.76 558.889 172.4C557.849 175.04 556.369 177.36 554.449 179.36C552.529 181.36 550.209 182.94 547.489 184.1C544.809 185.22 541.789 185.78 538.429 185.78ZM538.429 178.16C540.349 178.16 542.129 177.82 543.769 177.14C545.409 176.42 546.829 175.42 548.029 174.14C549.269 172.82 550.209 171.3 550.849 169.58C551.529 167.86 551.869 165.98 551.869 163.94C551.869 161.9 551.529 160.02 550.849 158.3C550.209 156.58 549.269 155.08 548.029 153.8C546.829 152.52 545.409 151.54 543.769 150.86C542.129 150.14 540.349 149.78 538.429 149.78C536.509 149.78 534.729 150.14 533.089 150.86C531.449 151.54 530.009 152.52 528.769 153.8C527.569 155.08 526.629 156.58 525.949 158.3C525.309 160.02 524.989 161.9 524.989 163.94C524.989 165.98 525.309 167.86 525.949 169.58C526.629 171.3 527.569 172.82 528.769 174.14C530.009 175.42 531.449 176.42 533.089 177.14C534.729 177.82 536.509 178.16 538.429 178.16ZM578.206 185C575.726 185 573.546 184.44 571.666 183.32C569.786 182.16 568.326 180.64 567.286 178.76C566.246 176.84 565.726 174.74 565.726 172.46V143H574.306V173.48C574.306 174.56 574.686 175.5 575.446 176.3C576.206 177.06 577.126 177.44 578.206 177.44H589.306V185H578.206ZM583.574 185L597.254 147.68C597.934 145.88 598.994 144.54 600.434 143.66C601.914 142.74 603.574 142.28 605.414 142.28C607.254 142.28 608.914 142.72 610.394 143.6C611.874 144.44 612.934 145.78 613.574 147.62L627.314 185H617.894L615.074 176.54H595.514L592.574 185H583.574ZM598.094 168.98H612.554L606.494 150.56C606.414 150.28 606.274 150.08 606.074 149.96C605.914 149.84 605.714 149.78 605.474 149.78C605.234 149.78 605.034 149.86 604.874 150.02C604.714 150.14 604.594 150.32 604.514 150.56L598.094 168.98ZM630.606 185V143H654.186C656.186 143 657.986 143.46 659.586 144.38C661.226 145.26 662.526 146.5 663.486 148.1C664.486 149.7 664.986 151.6 664.986 153.8C664.986 155.2 664.706 156.54 664.146 157.82C663.586 159.06 662.826 160.14 661.866 161.06C660.906 161.98 659.786 162.7 658.506 163.22C659.986 163.7 661.286 164.48 662.406 165.56C663.566 166.6 664.466 167.84 665.106 169.28C665.786 170.68 666.126 172.2 666.126 173.84C666.126 176.08 665.606 178.04 664.566 179.72C663.566 181.4 662.226 182.7 660.546 183.62C658.866 184.54 656.986 185 654.906 185H630.606ZM639.186 177.44H652.446C653.406 177.44 654.266 177.22 655.026 176.78C655.786 176.3 656.386 175.68 656.826 174.92C657.306 174.12 657.546 173.26 657.546 172.34C657.546 171.38 657.306 170.52 656.826 169.76C656.386 169 655.786 168.4 655.026 167.96C654.266 167.48 653.406 167.24 652.446 167.24H639.186V177.44ZM639.186 160.04H651.666C652.546 160.04 653.346 159.84 654.066 159.44C654.786 159 655.346 158.42 655.746 157.7C656.186 156.98 656.406 156.18 656.406 155.3C656.406 154.42 656.186 153.62 655.746 152.9C655.346 152.18 654.786 151.62 654.066 151.22C653.346 150.78 652.546 150.56 651.666 150.56H639.186V160.04Z" fill="white"/>
<path d="M364.057 208.1C362.52 208.1 361.312 208.614 360.434 209.643C359.555 210.671 359.115 212.077 359.115 213.861C359.115 215.704 359.542 217.126 360.395 218.129C361.247 219.125 362.462 219.623 364.037 219.623C365.053 219.623 366.195 219.434 367.465 219.057V220.619C366.859 220.84 366.277 220.99 365.717 221.068C365.157 221.153 364.512 221.195 363.783 221.195C361.68 221.195 360.059 220.557 358.92 219.281C357.787 217.999 357.221 216.186 357.221 213.842C357.221 212.37 357.491 211.081 358.031 209.975C358.578 208.868 359.369 208.015 360.404 207.416C361.446 206.817 362.67 206.518 364.076 206.518C365.587 206.518 366.902 206.798 368.021 207.357L367.299 208.881C366.16 208.36 365.079 208.1 364.057 208.1ZM382.846 213.842C382.846 216.127 382.266 217.924 381.107 219.232C379.955 220.541 378.34 221.195 376.264 221.195C374.161 221.195 372.533 220.554 371.381 219.271C370.235 217.982 369.662 216.166 369.662 213.822C369.662 211.498 370.232 209.698 371.371 208.422C372.517 207.139 374.154 206.498 376.283 206.498C378.354 206.498 379.965 207.149 381.117 208.451C382.27 209.747 382.846 211.544 382.846 213.842ZM371.557 213.842C371.557 215.73 371.957 217.169 372.758 218.158C373.559 219.148 374.727 219.643 376.264 219.643C377.794 219.643 378.956 219.154 379.75 218.178C380.544 217.201 380.941 215.756 380.941 213.842C380.941 211.934 380.548 210.499 379.76 209.535C378.972 208.565 377.813 208.08 376.283 208.08C374.734 208.08 373.559 208.572 372.758 209.555C371.957 210.531 371.557 211.96 371.557 213.842ZM392.309 221L387.602 208.48H387.523C387.621 209.522 387.67 210.808 387.67 212.338V221H386.01V206.723H388.666L393.07 218.422H393.148L397.631 206.723H400.268V221H398.49V212.221C398.49 211.244 398.536 210.004 398.627 208.5H398.549L393.783 221H392.309ZM408.168 221H403.012V219.965L404.691 219.584V208.158L403.012 207.758V206.723H408.168V207.758L406.488 208.158V219.584L408.168 219.965V221ZM419.027 217.182C419.027 218.425 418.578 219.405 417.68 220.121C416.781 220.837 415.531 221.195 413.93 221.195C412.237 221.195 410.928 220.971 410.004 220.521V218.803C410.609 219.063 411.27 219.268 411.986 219.418C412.709 219.568 413.383 219.643 414.008 219.643C415.076 219.643 415.88 219.438 416.42 219.027C416.96 218.617 417.23 218.054 417.23 217.338C417.23 216.863 417.133 216.472 416.938 216.166C416.742 215.86 416.413 215.574 415.951 215.307C415.495 215.04 414.802 214.737 413.871 214.398C412.549 213.917 411.605 213.35 411.039 212.699C410.473 212.042 410.189 211.195 410.189 210.16C410.189 209.047 410.606 208.161 411.439 207.504C412.279 206.846 413.383 206.518 414.75 206.518C416.176 206.518 417.488 206.785 418.686 207.318L418.129 208.861C416.905 208.354 415.766 208.1 414.711 208.1C413.865 208.1 413.201 208.282 412.719 208.646C412.243 209.011 412.006 209.522 412.006 210.18C412.006 210.648 412.097 211.039 412.279 211.352C412.468 211.658 412.768 211.938 413.178 212.191C413.594 212.445 414.245 212.735 415.131 213.061C416.192 213.451 416.983 213.832 417.504 214.203C418.025 214.568 418.409 214.991 418.656 215.473C418.904 215.948 419.027 216.518 419.027 217.182ZM425.922 221H420.766V219.965L422.445 219.584V208.158L420.766 207.758V206.723H425.922V207.758L424.242 208.158V219.584L425.922 219.965V221ZM441.146 213.842C441.146 216.127 440.567 217.924 439.408 219.232C438.256 220.541 436.641 221.195 434.564 221.195C432.462 221.195 430.834 220.554 429.682 219.271C428.536 217.982 427.963 216.166 427.963 213.822C427.963 211.498 428.533 209.698 429.672 208.422C430.818 207.139 432.455 206.498 434.584 206.498C436.654 206.498 438.266 207.149 439.418 208.451C440.57 209.747 441.146 211.544 441.146 213.842ZM429.857 213.842C429.857 215.73 430.258 217.169 431.059 218.158C431.859 219.148 433.028 219.643 434.564 219.643C436.094 219.643 437.257 219.154 438.051 218.178C438.845 217.201 439.242 215.756 439.242 213.842C439.242 211.934 438.848 210.499 438.061 209.535C437.273 208.565 436.114 208.08 434.584 208.08C433.035 208.08 431.859 208.572 431.059 209.555C430.258 210.531 429.857 211.96 429.857 213.842ZM455.629 221H453.529L445.883 209.145H445.805L445.854 209.936C445.932 211.12 445.971 212.149 445.971 213.021V221H444.311V206.723H446.391L446.83 207.416L451.518 214.662L454.008 218.539H454.086C454.073 218.383 454.047 217.826 454.008 216.869C453.969 215.906 453.949 215.209 453.949 214.779V206.723H455.629V221ZM467.484 221H459.506V206.723H467.484V208.305H461.303V212.758H467.123V214.32H461.303V219.418H467.484V221ZM478.734 217.182C478.734 218.425 478.285 219.405 477.387 220.121C476.488 220.837 475.238 221.195 473.637 221.195C471.944 221.195 470.635 220.971 469.711 220.521V218.803C470.316 219.063 470.977 219.268 471.693 219.418C472.416 219.568 473.09 219.643 473.715 219.643C474.783 219.643 475.587 219.438 476.127 219.027C476.667 218.617 476.938 218.054 476.938 217.338C476.938 216.863 476.84 216.472 476.645 216.166C476.449 215.86 476.12 215.574 475.658 215.307C475.202 215.04 474.509 214.737 473.578 214.398C472.257 213.917 471.312 213.35 470.746 212.699C470.18 212.042 469.896 211.195 469.896 210.16C469.896 209.047 470.313 208.161 471.146 207.504C471.986 206.846 473.09 206.518 474.457 206.518C475.883 206.518 477.195 206.785 478.393 207.318L477.836 208.861C476.612 208.354 475.473 208.1 474.418 208.1C473.572 208.1 472.908 208.282 472.426 208.646C471.951 209.011 471.713 209.522 471.713 210.18C471.713 210.648 471.804 211.039 471.986 211.352C472.175 211.658 472.475 211.938 472.885 212.191C473.301 212.445 473.952 212.735 474.838 213.061C475.899 213.451 476.69 213.832 477.211 214.203C477.732 214.568 478.116 214.991 478.363 215.473C478.611 215.948 478.734 216.518 478.734 217.182ZM496.322 210.922C496.322 212.38 495.824 213.5 494.828 214.281C493.832 215.056 492.429 215.443 490.619 215.443H488.979V221H487.182V206.723H490.961C494.535 206.723 496.322 208.122 496.322 210.922ZM488.979 213.9H490.414C491.833 213.9 492.862 213.673 493.5 213.217C494.138 212.755 494.457 212.016 494.457 211C494.457 210.082 494.161 209.395 493.568 208.939C492.976 208.484 492.051 208.256 490.795 208.256H488.979V213.9ZM501.088 213.578H503.227C504.385 213.578 505.232 213.35 505.766 212.895C506.299 212.439 506.566 211.762 506.566 210.863C506.566 209.965 506.296 209.311 505.756 208.9C505.215 208.484 504.34 208.275 503.129 208.275H501.088V213.578ZM501.088 215.102V221H499.291V206.723H503.227C504.997 206.723 506.306 207.061 507.152 207.738C508.005 208.409 508.432 209.421 508.432 210.775C508.432 212.67 507.478 213.946 505.57 214.604L509.486 221H507.387L503.93 215.102H501.088ZM524.193 213.842C524.193 216.127 523.614 217.924 522.455 219.232C521.303 220.541 519.688 221.195 517.611 221.195C515.508 221.195 513.881 220.554 512.729 219.271C511.583 217.982 511.01 216.166 511.01 213.822C511.01 211.498 511.579 209.698 512.719 208.422C513.865 207.139 515.502 206.498 517.631 206.498C519.701 206.498 521.312 207.149 522.465 208.451C523.617 209.747 524.193 211.544 524.193 213.842ZM512.904 213.842C512.904 215.73 513.305 217.169 514.105 218.158C514.906 219.148 516.075 219.643 517.611 219.643C519.141 219.643 520.303 219.154 521.098 218.178C521.892 217.201 522.289 215.756 522.289 213.842C522.289 211.934 521.895 210.499 521.107 209.535C520.32 208.565 519.161 208.08 517.631 208.08C516.081 208.08 514.906 208.572 514.105 209.555C513.305 210.531 512.904 211.96 512.904 213.842ZM530.98 213.744L534.701 206.723H536.635L531.879 215.463V221H530.072V215.541L525.316 206.723H527.279L530.98 213.744ZM546.566 221H538.588V206.723H546.566V208.305H540.385V212.758H546.205V214.32H540.385V219.418H546.566V221ZM555.834 208.1C554.298 208.1 553.09 208.614 552.211 209.643C551.332 210.671 550.893 212.077 550.893 213.861C550.893 215.704 551.319 217.126 552.172 218.129C553.025 219.125 554.239 219.623 555.814 219.623C556.83 219.623 557.973 219.434 559.242 219.057V220.619C558.637 220.84 558.054 220.99 557.494 221.068C556.934 221.153 556.29 221.195 555.561 221.195C553.458 221.195 551.837 220.557 550.697 219.281C549.564 217.999 548.998 216.186 548.998 213.842C548.998 212.37 549.268 211.081 549.809 209.975C550.355 208.868 551.146 208.015 552.182 207.416C553.223 206.817 554.447 206.518 555.854 206.518C557.364 206.518 558.679 206.798 559.799 207.357L559.076 208.881C557.937 208.36 556.856 208.1 555.834 208.1ZM566.879 221H565.072V208.305H560.609V206.723H571.312V208.305H566.879V221ZM585.756 213.842C585.756 216.127 585.176 217.924 584.018 219.232C582.865 220.541 581.251 221.195 579.174 221.195C577.071 221.195 575.443 220.554 574.291 219.271C573.145 217.982 572.572 216.166 572.572 213.822C572.572 211.498 573.142 209.698 574.281 208.422C575.427 207.139 577.064 206.498 579.193 206.498C581.264 206.498 582.875 207.149 584.027 208.451C585.18 209.747 585.756 211.544 585.756 213.842ZM574.467 213.842C574.467 215.73 574.867 217.169 575.668 218.158C576.469 219.148 577.637 219.643 579.174 219.643C580.704 219.643 581.866 219.154 582.66 218.178C583.454 217.201 583.852 215.756 583.852 213.842C583.852 211.934 583.458 210.499 582.67 209.535C581.882 208.565 580.723 208.08 579.193 208.08C577.644 208.08 576.469 208.572 575.668 209.555C574.867 210.531 574.467 211.96 574.467 213.842ZM598.5 221H593.344V219.965L595.023 219.584V208.158L593.344 207.758V206.723H598.5V207.758L596.82 208.158V219.584L598.5 219.965V221ZM612.582 221H610.482L602.836 209.145H602.758L602.807 209.936C602.885 211.12 602.924 212.149 602.924 213.021V221H601.264V206.723H603.344L603.783 207.416L608.471 214.662L610.961 218.539H611.039C611.026 218.383 611 217.826 610.961 216.869C610.922 215.906 610.902 215.209 610.902 214.779V206.723H612.582V221ZM620.98 221H619.174V208.305H614.711V206.723H625.414V208.305H620.98V221ZM635.57 221H627.592V206.723H635.57V208.305H629.389V212.758H635.209V214.32H629.389V219.418H635.57V221ZM640.521 213.578H642.66C643.819 213.578 644.665 213.35 645.199 212.895C645.733 212.439 646 211.762 646 210.863C646 209.965 645.73 209.311 645.189 208.9C644.649 208.484 643.773 208.275 642.562 208.275H640.521V213.578ZM640.521 215.102V221H638.725V206.723H642.66C644.431 206.723 645.74 207.061 646.586 207.738C647.439 208.409 647.865 209.421 647.865 210.775C647.865 212.67 646.911 213.946 645.004 214.604L648.92 221H646.82L643.363 215.102H640.521ZM662.484 221H660.385L652.738 209.145H652.66L652.709 209.936C652.787 211.12 652.826 212.149 652.826 213.021V221H651.166V206.723H653.246L653.686 207.416L658.373 214.662L660.863 218.539H660.941C660.928 218.383 660.902 217.826 660.863 216.869C660.824 215.906 660.805 215.209 660.805 214.779V206.723H662.484V221ZM678.822 213.842C678.822 216.127 678.243 217.924 677.084 219.232C675.932 220.541 674.317 221.195 672.24 221.195C670.137 221.195 668.51 220.554 667.357 219.271C666.212 217.982 665.639 216.166 665.639 213.822C665.639 211.498 666.208 209.698 667.348 208.422C668.493 207.139 670.131 206.498 672.26 206.498C674.33 206.498 675.941 207.149 677.094 208.451C678.246 209.747 678.822 211.544 678.822 213.842ZM667.533 213.842C667.533 215.73 667.934 217.169 668.734 218.158C669.535 219.148 670.704 219.643 672.24 219.643C673.77 219.643 674.932 219.154 675.727 218.178C676.521 217.201 676.918 215.756 676.918 213.842C676.918 211.934 676.524 210.499 675.736 209.535C674.949 208.565 673.79 208.08 672.26 208.08C670.71 208.08 669.535 208.572 668.734 209.555C667.934 210.531 667.533 211.96 667.533 213.842Z" fill="#DEF1FF"/>
<path d="M717.81 175.882C717.387 175.671 716.881 175.717 716.503 176L706.503 183.5C706.188 183.736 706.003 184.107 706.003 184.5V193.25C706.003 193.94 706.562 194.5 707.253 194.5C707.523 194.5 707.786 194.412 708.003 194.25L718.003 186.75C718.317 186.514 718.503 186.144 718.503 185.75V177C718.502 176.526 718.234 176.094 717.81 175.882Z" fill="#F44336"/>
<path d="M702.118 160.19C701.906 159.767 701.473 159.5 701 159.5H692.25C691.857 159.5 691.486 159.685 691.25 160L683.75 170C683.336 170.552 683.448 171.336 684 171.75C684.216 171.912 684.48 172 684.75 172H693.5C693.894 172 694.264 171.815 694.5 171.5L702 161.5C702.284 161.121 702.33 160.614 702.118 160.19Z" fill="#F44336"/>
<path d="M695.635 186.115L691.885 182.365C691.525 182.005 690.984 181.9 690.515 182.097C681.728 185.808 681 190.672 681 195.75C681 196.44 681.56 197 682.25 197C687.328 197 692.193 196.272 695.9 187.485C696.099 187.017 695.994 186.475 695.635 186.115Z" fill="#FFC107"/>
<path d="M703.135 183.615L694.385 174.865C694.131 174.603 693.773 174.469 693.41 174.5C693.048 174.527 692.717 174.709 692.5 175L688.75 180C688.496 180.339 688.431 180.785 688.578 181.182C689.221 182.754 690.17 184.182 691.368 185.385L692.618 186.635C693.821 187.833 695.249 188.781 696.82 189.425C696.958 189.475 697.103 189.5 697.25 189.5C697.52 189.5 697.784 189.412 698 189.25L703 185.5C703.552 185.086 703.664 184.302 703.25 183.75C703.215 183.703 703.176 183.659 703.135 183.618V183.615Z" fill="#E53935"/>
<path d="M739.75 137C727.097 137 715.5 139.615 691.25 172.5C690.939 172.921 690.924 173.49 691.21 173.927C692.739 176.223 694.465 178.381 696.37 180.375L697.62 181.625C699.614 183.53 701.772 185.257 704.068 186.785C704.505 187.075 705.077 187.061 705.5 186.75C738.385 162.5 741 150.903 741 138.25C741 137.56 740.44 137 739.75 137Z" fill="white"/>
<path d="M722.25 160.75C725.011 160.75 727.25 158.511 727.25 155.75C727.25 152.989 725.011 150.75 722.25 150.75C719.489 150.75 717.25 152.989 717.25 155.75C717.25 158.511 719.489 160.75 722.25 160.75Z" fill="#FAFAFA"/>
<path d="M722.25 162C718.798 162 716 159.202 716 155.75C716 152.298 718.798 149.5 722.25 149.5C725.702 149.5 728.5 152.298 728.5 155.75C728.5 159.202 725.702 162 722.25 162ZM722.25 152C720.179 152 718.5 153.679 718.5 155.75C718.5 157.821 720.179 159.5 722.25 159.5C724.321 159.5 726 157.821 726 155.75C726 153.679 724.321 152 722.25 152Z" fill="#F44336"/>
<defs>
<linearGradient id="paint0_linear_130_646" x1="-1.44542e-07" y1="5.3207" x2="-0.259023" y2="365" gradientUnits="userSpaceOnUse">
<stop offset="0.0343954" stop-color="#213F91"/>
<stop offset="0.950357" stop-color="#5FB4E6"/>
</linearGradient>
</defs>
</svg>
